Halibut Variable 230407.glyphspackage
{
glyphname = period;
kernLeft = period;
kernRight = period;
layers = (
{
layerId = "0CCC0E2D-406A-4672-8E6C-854B1DF78A27";
shapes = (
{
closed = 1;
nodes = (
(50,0,l),
(130,0,l),
(130,90,l),
(50,90,l)
);
}
);
width = 180;
},
{
layerId = m002;
shapes = (
{
closed = 1;
nodes = (
(34,0,l),
(160,0,l),
(160,90,l),
(34,90,l)
);
}
);
width = 194;
},
{
layerId = m003;
shapes = (
{
closed = 1;
nodes = (
(40,0,l),
(115,0,l),
(115,90,l),
(40,90,l)
);
}
);
width = 155;
},
{
layerId = "2C26E880-80A5-4D19-8A94-7D905A372841";
shapes = (
{
closed = 1;
nodes = (
(40,0,l),
(90,0,l),
(90,90,l),
(40,90,l)
);
}
);
width = 130;
}
);
unicode = 46;
}
{
glyphname = slash;
layers = (
{
layerId = "0CCC0E2D-406A-4672-8E6C-854B1DF78A27";
shapes = (
{
closed = 1;
nodes = (
(47,-110,l),
(506,691,l),
(478,708,l),
(20,-94,l)
);
}
);
width = 496;
},
{
layerId = m002;
shapes = (
{
closed = 1;
nodes = (
(47,-127,l),
(511,702,l),
(469,727,l),
(4,-103,l)
);
}
);
width = 485;
},
{
layerId = m003;
shapes = (
{
closed = 1;
nodes = (
(44,-111,l),
(428,693,l),
(391,713,l),
(8,-92,l)
);
}
);
width = 405;
},
{
layerId = "2C26E880-80A5-4D19-8A94-7D905A372841";
shapes = (
{
closed = 1;
nodes = (
(45,-98,l),
(424,684,l),
(399,699,l),
(20,-84,l)
);
}
);
width = 414;
}
);
unicode = 47;
}
{
glyphname = six;
layers = (
{
layerId = "0CCC0E2D-406A-4672-8E6C-854B1DF78A27";
shapes = (
{
closed = 1;
nodes = (
(103,202,l),
(188,284,o),
(327,344,o),
(461,344,cs),
(635,344,o),
(754,282,o),
(754,191,cs),
(754,94,o),
(615,15,o),
(446,15,cs),
(241,15,o),
(107,127,o),
(107,299,cs),
(107,474,o),
(243,590,o),
(448,590,cs),
(521,590,o),
(596,576,o),
(661,549,c),
(686,422,l),
(694,420,l),
(735,577,l),
(671,603,o),
(541,625,o),
(451,625,cs),
(227,625,o),
(70,488,o),
(70,291,cs),
(70,104,o),
(217,-20,o),
(439,-20,cs),
(635,-20,o),
(791,79,o),
(791,202,cs),
(791,310,o),
(670,375,o),
(472,374,cs),
(319,373,o),
(208,333,o),
(98,239,c)
);
}
);
width = 861;
},
{
layerId = m002;
shapes = (
{
closed = 1;
nodes = (
(152,202,l),
(254,300,o),
(356,331,o),
(477,331,cs),
(638,331,o),
(758,267,o),
(758,185,cs),
(758,96,o),
(647,31,o),
(495,31,cs),
(292,31,o),
(157,138,o),
(157,299,cs),
(157,455,o),
(286,574,o),
(466,574,cs),
(565,574,o),
(653,556,o),
(710,533,c),
(735,406,l),
(743,404,l),
(800,577,l),
(727,604,o),
(607,625,o),
(500,625,cs),
(237,625,o),
(54,481,o),
(54,273,cs),
(54,86,o),
(206,-20,o),
(447,-20,cs),
(676,-20,o),
(862,86,o),
(862,218,cs),
(862,320,o),
(736,384,o),
(536,383,cs),
(373,382,o),
(237,338,o),
(147,264,c)
);
}
);
width = 916;
},
{
layerId = m003;
shapes = (
{
closed = 1;
nodes = (
(134,217,l),
(174,296,o),
(216,333,o),
(257,333,cs),
(311,333,o),
(350,268,o),
(350,176,cs),
(350,89,o),
(309,25,o),
(254,25,cs),
(178,25,o),
(138,132,o),
(138,299,cs),
(138,483,o),
(176,578,o),
(250,578,cs),
(277,578,o),
(320,566,o),
(329,555,c),
(345,415,l),
(353,413,l),
(408,579,l),
(386,600,o),
(313,620,o),
(262,620,cs),
(140,620,o),
(58,489,o),
(58,276,cs),
(58,96,o),
(126,-20,o),
(239,-20,cs),
(350,-20,o),
(430,76,o),
(430,204,cs),
(430,315,o),
(382,382,o),
(295,382,cs),
(227,382,o),
(163,342,o),
(129,277,c)
);
}
);
width = 488;
},
{
layerId = "2C26E880-80A5-4D19-8A94-7D905A372841";
shapes = (
{
closed = 1;
nodes = (
(102,242,l),
(137,308,o),
(185,344,o),
(239,344,cs),
(308,344,o),
(349,284,o),
(349,181,cs),
(349,75,o),
(306,10,o),
(235,10,cs),
(150,10,o),
(110,102,o),
(110,299,cs),
(110,497,o),
(148,590,o),
(229,590,cs),
(252,590,o),
(286,583,o),
(297,576,c),
(313,436,l),
(321,434,l),
(365,588,l),
(339,606,o),
(285,620,o),
(243,620,cs),
(127,620,o),
(70,512,o),
(70,290,cs),
(70,77,o),
(119,-20,o),
(226,-20,cs),
(326,-20,o),
(386,60,o),
(386,193,cs),
(386,312,o),
(339,375,o),
(252,374,cs),
(192,374,o),
(141,344,o),
(97,283,c)
);
}
);
width = 456;
}
);
unicode = 54;
}
{
glyphname = I;
kernLeft = H;
kernRight = H;
layers = (
{
anchors = (
{
name = ogonek;
pos = (193,10);
},
{
name = top;
pos = (200,600);
},
{
name = topleft;
pos = (1,600);
}
);
layerId = "0CCC0E2D-406A-4672-8E6C-854B1DF78A27";
shapes = (
{
closed = 1;
nodes = (
(32,0,l),
(370,0,l),
(372,8,l),
(222,50,l),
(222,550,l),
(377,592,l),
(375,600,l),
(37,600,l),
(35,592,l),
(185,550,l),
(185,50,l),
(30,8,l)
);
}
);
width = 407;
},
{
anchors = (
{
name = ogonek;
pos = (201,10);
},
{
name = top;
pos = (208,600);
},
{
name = topleft;
pos = (9,600);
}
);
layerId = m002;
shapes = (
{
closed = 1;
nodes = (
(20,0,l),
(407,0,l),
(409,8,l),
(259,50,l),
(259,550,l),
(406,592,l),
(404,600,l),
(16,600,l),
(14,592,l),
(164,550,l),
(164,50,l),
(18,8,l)
);
}
);
width = 423;
},
{
anchors = (
{
name = ogonek;
pos = (146,13);
},
{
name = top;
pos = (157,600);
},
{
name = topleft;
pos = (-42,600);
}
);
layerId = m003;
shapes = (
{
closed = 1;
nodes = (
(11,0,l),
(305,0,l),
(307,8,l),
(197,45,l),
(197,555,l),
(305,592,l),
(303,600,l),
(10,600,l),
(8,592,l),
(118,555,l),
(118,45,l),
(9,8,l)
);
}
);
width = 315;
},
{
anchors = (
{
name = ogonek;
pos = (164,0);
},
{
name = top;
pos = (154,600);
},
{
name = topleft;
pos = (-45,600);
}
);
layerId = "2C26E880-80A5-4D19-8A94-7D905A372841";
shapes = (
{
closed = 1;
nodes = (
(22,0,l),
(279,0,l),
(281,8,l),
(171,45,l),
(171,555,l),
(286,592,l),
(284,600,l),
(28,600,l),
(26,592,l),
(136,555,l),
(136,45,l),
(20,8,l)
);
}
);
width = 306;
}
);
metricLeft = H;
metricRight = H;
unicode = 73;
}
{
glyphname = O;
kernLeft = O;
kernRight = O;
layers = (
{
anchors = (
{
name = bottom;
pos = (461,0);
},
{
name = center;
pos = (461,300);
},
{
name = ogonek;
pos = (848,10);
},
{
name = top;
pos = (461,600);
},
{
name = topleft;
pos = (-3,600);
},
{
name = topright;
pos = (925,600);
}
);
layerId = "0CCC0E2D-406A-4672-8E6C-854B1DF78A27";
shapes = (
{
closed = 1;
nodes = (
(718,-20,o),
(882,107,o),
(882,297,cs),
(882,494,o),
(718,625,o),
(471,625,cs),
(212,625,o),
(40,499,o),
(40,309,cs),
(40,112,o),
(213,-20,o),
(472,-20,cs)
);
},
{
closed = 1;
nodes = (
(240,15,o),
(82,135,o),
(82,315,cs),
(82,480,o),
(236,590,o),
(468,590,cs),
(691,590,o),
(840,471,o),
(840,292,cs),
(840,126,o),
(694,15,o),
(476,15,cs)
);
}
);
width = 927;
},
{
anchors = (
{
name = bottom;
pos = (481,0);
},
{
name = center;
pos = (481,300);
},
{
name = ogonek;
pos = (868,10);
},
{
name = top;
pos = (481,600);
},
{
name = topleft;
pos = (17,600);
},
{
name = topright;
pos = (945,600);
}
);
layerId = m002;
shapes = (
{
closed = 1;
nodes = (
(733,-20,o),
(938,127,o),
(938,313,cs),
(938,506,o),
(773,625,o),
(507,625,cs),
(240,625,o),
(24,478,o),
(24,293,cs),
(24,99,o),
(196,-20,o),
(476,-20,cs)
);
},
{
closed = 1;
nodes = (
(277,31,o),
(126,147,o),
(126,331,cs),
(126,483,o),
(257,574,o),
(472,574,cs),
(697,574,o),
(836,462,o),
(836,276,cs),
(836,117,o),
(723,31,o),
(512,31,cs)
);
}
);
width = 967;
},
{
anchors = (
{
name = bottom;
pos = (261,0);
},
{
name = center;
pos = (261,300);
},
{
name = ogonek;
pos = (343,10);
},
{
name = top;
pos = (261,600);
},
{
name = topleft;
pos = (7,600);
},
{
name = topright;
pos = (420,600);
}
);
layerId = m003;
shapes = (
{
closed = 1;
nodes = (
(406,-20,o),
(496,115,o),
(496,309,cs),
(496,492,o),
(415,620,o),
(272,620,cs),
(116,620,o),
(26,488,o),
(26,298,cs),
(26,111,o),
(107,-20,o),
(250,-20,cs)
);
},
{
closed = 1;
nodes = (
(167,28,o),
(111,152,o),
(111,327,cs),
(111,471,o),
(163,572,o),
(250,572,cs),
(355,572,o),
(412,452,o),
(412,281,cs),
(412,132,o),
(358,28,o),
(273,28,cs)
);
}
);
width = 529;
},
{
anchors = (
{
name = bottom;
pos = (250,0);
},
{
name = center;
pos = (250,300);
},
{
name = ogonek;
pos = (332,10);
},
{
name = top;
pos = (250,600);
},
{
name = topleft;
pos = (-4,600);
},
{
name = topright;
pos = (409,600);
}
);
layerId = "2C26E880-80A5-4D19-8A94-7D905A372841";
shapes = (
{
closed = 1;
nodes = (
(382,-20,o),
(455,94,o),
(455,298,cs),
(455,505,o),
(384,620,o),
(255,620,cs),
(120,620,o),
(45,507,o),
(45,303,cs),
(45,95,o),
(118,-20,o),
(250,-20,cs)
);
},
{
closed = 1;
nodes = (
(145,12,o),
(82,121,o),
(82,316,cs),
(82,491,o),
(142,588,o),
(250,588,cs),
(358,588,o),
(418,481,o),
(418,287,cs),
(418,110,o),
(361,12,o),
(257,12,cs)
);
}
);
width = 500;
}
);
unicode = 79;
}
{
glyphname = Z;
kernLeft = Z;
kernRight = Z;
layers = (
{
anchors = (
{
name = bottom;
pos = (394,0);
},
{
name = center;
pos = (394,300);
},
{
name = top;
pos = (394,600);
}
);
layerId = "0CCC0E2D-406A-4672-8E6C-854B1DF78A27";
shapes = (
{
closed = 1;
nodes = (
(765,0,l),
(745,205,l),
(737,203,l),
(685,30,l),
(63,28,l),
(52,9,l),
(724,576,l),
(711,600,l),
(27,612,l),
(75,420,l),
(83,422,l),
(108,581,l),
(681,575,l),
(692,592,l),
(20,24,l),
(33,0,l)
);
}
);
width = 785;
},
{
anchors = (
{
name = bottom;
pos = (423,0);
},
{
name = center;
pos = (423,300);
},
{
name = top;
pos = (423,600);
}
);
layerId = m002;
shapes = (
{
closed = 1;
nodes = (
(830,0,l),
(810,237,l),
(802,235,l),
(750,62,l),
(92,44,l),
(105,9,l),
(796,560,l),
(776,600,l),
(19,612,l),
(67,390,l),
(75,392,l),
(100,551,l),
(710,559,l),
(697,592,l),
(4,40,l),
(25,0,l)
);
}
);
width = 834;
},
{
anchors = (
{
name = bottom;
pos = (245,0);
},
{
name = center;
pos = (241,300);
},
{
name = top;
pos = (240,600);
}
);
layerId = m003;
shapes = (
{
closed = 1;
nodes = (
(432,0,l),
(412,224,l),
(404,222,l),
(355,48,l),
(68,34,l),
(82,9,l),
(412,574,l),
(393,600,l),
(26,612,l),
(76,401,l),
(84,403,l),
(103,564,l),
(355,568,l),
(340,592,l),
(8,26,l),
(27,0,l)
);
}
);
width = 440;
},
{
anchors = (
{
name = bottom;
pos = (186,0);
},
{
name = center;
pos = (204,300);
},
{
name = top;
pos = (206,600);
}
);
background = {
shapes = (
{
closed = 1;
nodes = (
(347,600,l),
(39,612,l),
(78,421,l),
(86,423,l),
(106,575,l),
(323,579,l)
);
},
{
closed = 1;
nodes = (
(318,30,l),
(355,196,l),
(363,198,l),
(384,0,l),
(37,0,l),
(37,25,l)
);
}
);
};
layerId = "2C26E880-80A5-4D19-8A94-7D905A372841";
shapes = (
{
closed = 1;
nodes = (
(384,0,l),
(363,198,l),
(355,196,l),
(318,30,l),
(42,25,l),
(54,9,l),
(358,585,l),
(345,600,l),
(39,612,l),
(78,421,l),
(86,423,l),
(106,575,l),
(333,579,l),
(324,592,l),
(20,15,l),
(34,0,l)
);
}
);
width = 404;
}
);
unicode = 90;
}
{
glyphname = f;
kernLeft = f;
kernRight = f;
layers = (
{
associatedMasterId = "0CCC0E2D-406A-4672-8E6C-854B1DF78A27";
layerId = "AE03EC3E-DB56-489D-AD58-DCE31A067E7B";
name = "Apr 20 19, 12:42";
shapes = (
{
closed = 1;
nodes = (
(42,0,l),
(447,1,l),
(449,9,l),
(259,49,l),
(259,365,l),
(576,365,l),
(576,400,l),
(259,400,l),
(259,444,ls),
(252,630,o),
(278,660,o),
(396,660,cs),
(458,660,o),
(520,641,o),
(579,609,c),
(579,497,l),
(583,495,l),
(657,599,l),
(534,683,o),
(460,700,o),
(396,700,cs),
(254,700,o),
(189,612,o),
(189,444,cs),
(189.112,400,l),
(79,375,l),
(81,365,l),
(189.201,365,l),
(190,50,l),
(40,7,l)
);
}
);
width = 622;
},
{
associatedMasterId = "0CCC0E2D-406A-4672-8E6C-854B1DF78A27";
layerId = "9BAE6DA4-4C92-43DC-ACA9-B9C3E33A85D1";
name = "Apr 20 19, 12:42";
shapes = (
{
closed = 1;
nodes = (
(42,0,l),
(447,1,l),
(449,9,l),
(259,49,l),
(259,365,l),
(576,365,l),
(576,400,l),
(259,400,l),
(259,444,ls),
(252,630,o),
(278,660,o),
(396,660,cs),
(458,660,o),
(520,641,o),
(579,609,c),
(579,497,l),
(583,495,l),
(657,599,l),
(534,683,o),
(460,700,o),
(396,700,cs),
(254,700,o),
(189,612,o),
(189,444,cs),
(189.112,400,l),
(79,375,l),
(81,365,l),
(189.201,365,l),
(190,50,l),
(40,7,l)
);
}
);
width = 622;
},
{
associatedMasterId = "0CCC0E2D-406A-4672-8E6C-854B1DF78A27";
layerId = "4C53897C-C3FB-4B91-9675-9A9C1621A2C3";
name = "Apr 20 19, 12:34";
shapes = (
{
closed = 1;
nodes = (
(7,0,l),
(263,0,l),
(266,4,l),
(146,30,l),
(146,370,l),
(260,370,l),
(260,400,l),
(146,400,l),
(146,444,ls),
(146,624,o),
(155,670,o),
(193,670,cs),
(220,670,o),
(257,653,o),
(283,625,c),
(275,515,l),
(279,513,l),
(324,609,l),
(267,693,o),
(222,700,o),
(193,700,cs),
(127,700,o),
(96,612,o),
(96,444,cs),
(96,400,l),
(37,375,l),
(37,370,l),
(96,370,l),
(96,30,l),
(5,4,l)
);
}
);
width = 289;
},
{
associatedMasterId = "0CCC0E2D-406A-4672-8E6C-854B1DF78A27";
layerId = "5AB204F3-A71E-432A-ADD3-8A068A151B2C";
name = "2 Dec 21, 17:11";
shapes = (
{
closed = 1;
nodes = (
(169,410,l),
(59,383,l),
(61,375,l),
(169,375,l),
(170,50,l),
(50,8,l),
(52,0,l),
(457,0,l),
(459,8,l),
(239,49,l),
(239,375,l),
(517,375,l),
(532,272,l),
(540,270,l),
(591,410,l),
(239,410,l),
(239,514,ls),
(239,669,o),
(274,728,o),
(366,728,cs),
(456,728,o),
(545,703,o),
(608,669,c),
(617,677,l),
(512,747,o),
(455,770,o),
(366,770,cs),
(241,770,o),
(169,677,o),
(169,514,cs)
);
}
);
width = 602;
},
{
associatedMasterId = "0CCC0E2D-406A-4672-8E6C-854B1DF78A27";
layerId = "FB446394-BC73-4573-8CC5-4AE5C3B53856";
name = "2 Dec 21, 17:47";
shapes = (
{
closed = 1;
nodes = (
(169,410,l),
(59,383,l),
(61,375,l),
(169,375,l),
(170,50,l),
(50,8,l),
(52,0,l),
(457,0,l),
(459,8,l),
(239,49,l),
(239,375,l),
(517,375,l),
(534,273,l),
(542,271,l),
(591,410,l),
(239,410,l),
(239,467,ls),
(239,627,o),
(301,700,o),
(516,748,c),
(511,767,l),
(261,730,o),
(169,650,o),
(169,467,cs)
);
}
);
width = 602;
},
{
associatedMasterId = m002;
layerId = "24E84D81-AE21-4293-9F7E-FE48C49993CC";
name = "Apr 20 19, 12:42";
shapes = (
{
closed = 1;
nodes = (
(42,0,l),
(447,1,l),
(449,9,l),
(259,49,l),
(259,365,l),
(576,365,l),
(576,400,l),
(259,400,l),
(259,444,ls),
(252,630,o),
(278,660,o),
(396,660,cs),
(458,660,o),
(520,641,o),
(579,609,c),
(579,497,l),
(583,495,l),
(657,599,l),
(534,683,o),
(460,700,o),
(396,700,cs),
(254,700,o),
(189,612,o),
(189,444,cs),
(189.112,400,l),
(79,375,l),
(81,365,l),
(189.201,365,l),
(190,50,l),
(40,7,l)
);
}
);
width = 622;
},
{
associatedMasterId = m002;
layerId = "33E2DD2C-B027-4A8E-AFE1-749278605146";
name = "Apr 20 19, 12:42";
shapes = (
{
closed = 1;
nodes = (
(42,0,l),
(447,1,l),
(449,9,l),
(259,49,l),
(259,365,l),
(576,365,l),
(576,400,l),
(259,400,l),
(259,444,ls),
(252,630,o),
(278,660,o),
(396,660,cs),
(458,660,o),
(520,641,o),
(579,609,c),
(579,497,l),
(583,495,l),
(657,599,l),
(534,683,o),
(460,700,o),
(396,700,cs),
(254,700,o),
(189,612,o),
(189,444,cs),
(189.112,400,l),
(79,375,l),
(81,365,l),
(189.201,365,l),
(190,50,l),
(40,7,l)
);
}
);
width = 622;
},
{
associatedMasterId = m002;
layerId = "048EDA75-3053-4806-89E5-A173BB8E8BAD";
name = "Apr 20 19, 12:34";
shapes = (
{
closed = 1;
nodes = (
(7,0,l),
(263,0,l),
(266,4,l),
(146,30,l),
(146,370,l),
(260,370,l),
(260,400,l),
(146,400,l),
(146,444,ls),
(146,624,o),
(155,670,o),
(193,670,cs),
(220,670,o),
(257,653,o),
(283,625,c),
(275,515,l),
(279,513,l),
(324,609,l),
(267,693,o),
(222,700,o),
(193,700,cs),
(127,700,o),
(96,612,o),
(96,444,cs),
(96,400,l),
(37,375,l),
(37,370,l),
(96,370,l),
(96,30,l),
(5,4,l)
);
}
);
width = 289;
},
{
associatedMasterId = m002;
layerId = "3E147BFE-D416-4555-9F95-C6DA73C81B94";
name = "2 Dec 21, 17:11";
shapes = (
{
closed = 1;
nodes = (
(169,410,l),
(59,383,l),
(61,375,l),
(169,375,l),
(170,50,l),
(50,8,l),
(52,0,l),
(457,0,l),
(459,8,l),
(239,49,l),
(239,375,l),
(517,375,l),
(532,272,l),
(540,270,l),
(591,410,l),
(239,410,l),
(239,514,ls),
(239,669,o),
(274,728,o),
(366,728,cs),
(456,728,o),
(545,703,o),
(608,669,c),
(617,677,l),
(512,747,o),
(455,770,o),
(366,770,cs),
(241,770,o),
(169,677,o),
(169,514,cs)
);
}
);
width = 602;
},
{
associatedMasterId = m002;
layerId = "ADE1E5CC-D572-4803-91AE-035443D5F3C5";
name = "2 Dec 21, 17:47";
shapes = (
{
closed = 1;
nodes = (
(169,410,l),
(59,383,l),
(61,375,l),
(169,375,l),
(170,50,l),
(50,8,l),
(52,0,l),
(457,0,l),
(459,8,l),
(239,49,l),
(239,375,l),
(517,375,l),
(534,273,l),
(542,271,l),
(591,410,l),
(239,410,l),
(239,467,ls),
(239,627,o),
(301,700,o),
(516,748,c),
(511,767,l),
(261,730,o),
(169,650,o),
(169,467,cs)
);
}
);
width = 602;
},
{
associatedMasterId = m003;
layerId = "4E15E9F5-B3E0-48C2-8282-8BD7579BE814";
name = "Apr 20 19, 12:42";
shapes = (
{
closed = 1;
nodes = (
(42,0,l),
(447,1,l),
(449,9,l),
(259,49,l),
(259,365,l),
(576,365,l),
(576,400,l),
(259,400,l),
(259,444,ls),
(252,630,o),
(278,660,o),
(396,660,cs),
(458,660,o),
(520,641,o),
(579,609,c),
(579,497,l),
(583,495,l),
(657,599,l),
(534,683,o),
(460,700,o),
(396,700,cs),
(254,700,o),
(189,612,o),
(189,444,cs),
(189.112,400,l),
(79,375,l),
(81,365,l),
(189.201,365,l),
(190,50,l),
(40,7,l)
);
}
);
width = 622;
},
{
associatedMasterId = m003;
layerId = "2C234FC5-9D45-4BD3-87C2-8CB4245F428B";
name = "Apr 20 19, 12:42";
shapes = (
{
closed = 1;
nodes = (
(42,0,l),
(447,1,l),
(449,9,l),
(259,49,l),
(259,365,l),
(576,365,l),
(576,400,l),
(259,400,l),
(259,444,ls),
(252,630,o),
(278,660,o),
(396,660,cs),
(458,660,o),
(520,641,o),
(579,609,c),
(579,497,l),
(583,495,l),
(657,599,l),
(534,683,o),
(460,700,o),
(396,700,cs),
(254,700,o),
(189,612,o),
(189,444,cs),
(189.112,400,l),
(79,375,l),
(81,365,l),
(189.201,365,l),
(190,50,l),
(40,7,l)
);
}
);
width = 622;
},
{
associatedMasterId = m003;
layerId = "85142692-47CD-4562-8EC0-354445F5F23E";
name = "Apr 20 19, 12:34";
shapes = (
{
closed = 1;
nodes = (
(7,0,l),
(263,0,l),
(266,4,l),
(146,30,l),
(146,370,l),
(260,370,l),
(260,400,l),
(146,400,l),
(146,444,ls),
(146,624,o),
(155,670,o),
(193,670,cs),
(220,670,o),
(257,653,o),
(283,625,c),
(275,515,l),
(279,513,l),
(324,609,l),
(267,693,o),
(222,700,o),
(193,700,cs),
(127,700,o),
(96,612,o),
(96,444,cs),
(96,400,l),
(37,375,l),
(37,370,l),
(96,370,l),
(96,30,l),
(5,4,l)
);
}
);
width = 289;
},
{
associatedMasterId = m003;
layerId = "6AA44C4B-99F0-43B9-96D6-EB98CF118314";
name = "2 Dec 21, 17:11";
shapes = (
{
closed = 1;
nodes = (
(169,410,l),
(59,383,l),
(61,375,l),
(169,375,l),
(170,50,l),
(50,8,l),
(52,0,l),
(457,0,l),
(459,8,l),
(239,49,l),
(239,375,l),
(517,375,l),
(532,272,l),
(540,270,l),
(591,410,l),
(239,410,l),
(239,514,ls),
(239,669,o),
(274,728,o),
(366,728,cs),
(456,728,o),
(545,703,o),
(608,669,c),
(617,677,l),
(512,747,o),
(455,770,o),
(366,770,cs),
(241,770,o),
(169,677,o),
(169,514,cs)
);
}
);
width = 602;
},
{
associatedMasterId = m003;
layerId = "A41CA57F-208C-4015-B5C8-E322D11E67D5";
name = "2 Dec 21, 17:47";
shapes = (
{
closed = 1;
nodes = (
(169,410,l),
(59,383,l),
(61,375,l),
(169,375,l),
(170,50,l),
(50,8,l),
(52,0,l),
(457,0,l),
(459,8,l),
(239,49,l),
(239,375,l),
(517,375,l),
(534,273,l),
(542,271,l),
(591,410,l),
(239,410,l),
(239,467,ls),
(239,627,o),
(301,700,o),
(516,748,c),
(511,767,l),
(261,730,o),
(169,650,o),
(169,467,cs)
);
}
);
width = 602;
},
{
anchors = (
{
name = bottom;
pos = (121,0);
},
{
name = top;
pos = (121,700);
}
);
associatedMasterId = m003;
layerId = "A03FA2C0-3D7D-446E-A0FF-4A2225D23913";
name = "15 Sep 22, 15:51";
shapes = (
{
closed = 1;
nodes = (
(119,405,l),
(9,375,l),
(11,365,l),
(119,365,l),
(120,50,l),
(0,8,l),
(2,0,l),
(332,0,l),
(334,8,l),
(184,49,l),
(184,368,l),
(277,367,l),
(294,275,l),
(302,273,l),
(341,399,l),
(184,400,l),
(184,504,ls),
(184,659,o),
(194,676,o),
(246,678,cs),
(270,679,o),
(310,671,o),
(325,662,c),
(340,561,l),
(348,559,l),
(382,675,l),
(348,696,o),
(293,710,o),
(246,710,cs),
(150,710,o),
(119,647,o),
(119,454,cs)
);
}
);
width = 362;
},
{
anchors = (
{
name = bottom;
pos = (104,0);
},
{
name = top;
pos = (104,692);
}
);
associatedMasterId = "2C26E880-80A5-4D19-8A94-7D905A372841";
layerId = "84DFB0C6-2C75-493D-A200-FFDC29969A6B";
name = "15 Sep 22, 19:44";
shapes = (
{
closed = 1;
nodes = (
(100,702,o),
(5,621,o),
(115,407,c),
(10,375,l),
(12,367,l),
(120,367,l),
(120,47,l),
(9,8,l),
(11,0,l),
(294,0,l),
(296,8,l),
(155,47,l),
(155,367,l),
(252,366,l),
(265,274,l),
(273,272,l),
(303,391,l),
(157,392,l),
(47,601,o),
(110,676,o),
(195,676,cs),
(214,676,o),
(239,669,o),
(257,662,c),
(273,539,l),
(281,537,l),
(315,675,l),
(291,688,o),
(233,702,o),
(195,702,cs)
);
}
);
width = 310;
},
{
anchors = (
{
name = bottom;
pos = (85,0);
},
{
name = top;
pos = (85,692);
}
);
layerId = "2C26E880-80A5-4D19-8A94-7D905A372841";
name = "Condensed Thin";
shapes = (
{
closed = 1;
nodes = (
(101,407,l),
(-9,375,l),
(-7,367,l),
(101,367,l),
(101,47,l),
(-10,8,l),
(-8,0,l),
(275,0,l),
(277,8,l),
(136,47,l),
(136,367,l),
(233,366,l),
(246,274,l),
(254,272,l),
(284,391,l),
(136,392,l),
(136,564,ls),
(136,635,o),
(155,674,o),
(206,676,cs),
(245,677,o),
(270,669,o),
(288,662,c),
(304,569,l),
(312,567,l),
(346,675,l),
(321,688,o),
(255,702,o),
(216,702,cs),
(130,702,o),
(101,649,o),
(101,540,cs)
);
}
);
width = 335;
},
{
anchors = (
{
name = bottom;
pos = (121,0);
},
{
name = top;
pos = (121,700);
}
);
associatedMasterId = m003;
layerId = "5C269E4C-4778-4EF4-8957-4486A5534462";
name = "15 Sep 22, 19:44";
shapes = (
{
closed = 1;
nodes = (
(69,710,o),
(12,562,o),
(119,405,c),
(9,375,l),
(11,365,l),
(119,365,l),
(120,50,l),
(0,8,l),
(2,0,l),
(332,0,l),
(334,8,l),
(184,49,l),
(184,368,l),
(277,367,l),
(294,255,l),
(302,253,l),
(341,399,l),
(184,400,l),
(87,552,o),
(112,678,o),
(216,678,cs),
(254,678,o),
(277,672,o),
(295,662,c),
(310,541,l),
(318,539,l),
(362,675,l),
(326,692,o),
(264,710,o),
(216,710,cs)
);
}
);
width = 362;
},
{
anchors = (
{
name = bottom;
pos = (105,0);
},
{
name = top;
pos = (105,702);
}
);
layerId = m003;
name = Condensed;
shapes = (
{
closed = 1;
nodes = (
(98,405,l),
(-12,375,l),
(-10,365,l),
(98,365,l),
(99,51,l),
(-23,8,l),
(-21,0,l),
(321,0,l),
(323,8,l),
(171,50,l),
(171,368,l),
(263,367,l),
(281,275,l),
(289,273,l),
(330,401,l),
(171,402,l),
(171,577,ls),
(171,664,o),
(177,676,o),
(229,678,cs),
(257,679,o),
(291,672,o),
(309,662,c),
(324,559,l),
(332,557,l),
(366,685,l),
(329,698,o),
(277,712,o),
(228,712,cs),
(130,712,o),
(98,647,o),
(98,520,cs)
);
}
);
width = 344;
},
{
anchors = (
{
name = bottom;
pos = (261,0);
},
{
name = top;
pos = (261,700);
}
);
associatedMasterId = m002;
layerId = "686715BC-5EA5-437C-B113-FA44A1D7B325";
name = "15 Sep 22, 19:45";
shapes = (
{
closed = 1;
nodes = (
(87,720,o),
(14,580,o),
(125,415,c),
(19,380,l),
(21,370,l),
(129,370,l),
(130,50,l),
(10,8,l),
(12,0,l),
(417,0,l),
(419,8,l),
(199,49,l),
(199,375,l),
(434,375,l),
(451,263,l),
(459,261,l),
(508,410,l),
(199,410,l),
(90,580,o),
(125,680,o),
(275,680,cs),
(344,680,o),
(433,661,o),
(479,639,c),
(495,487,l),
(503,485,l),
(557,653,l),
(471,695,o),
(375,720,o),
(285,720,cs)
);
}
);
width = 527;
},
{
anchors = (
{
name = bottom;
pos = (266,0);
},
{
name = top;
pos = (266,705);
}
);
layerId = m002;
name = Extended;
shapes = (
{
closed = 1;
nodes = (
(125,415,l),
(15,378,l),
(17,368,l),
(125,368,l),
(126,50,l),
(6,8,l),
(8,0,l),
(430,0,l),
(432,8,l),
(212,49,l),
(212,375,l),
(447,375,l),
(464,273,l),
(472,271,l),
(526,415,l),
(212,415,l),
(212,530,ls),
(212,650,o),
(232,678,o),
(318,678,cs),
(377,678,o),
(452,662,o),
(490,645,c),
(506,494,l),
(514,492,l),
(572,667,l),
(499,700,o),
(389,725,o),
(313,725,cs),
(193,725,o),
(125,655,o),
(125,530,cs)
);
}
);
width = 533;
},
{
anchors = (
{
name = bottom;
pos = (251,0);
},
{
name = top;
pos = (251,690);
}
);
associatedMasterId = "0CCC0E2D-406A-4672-8E6C-854B1DF78A27";
background = {
shapes = (
{
closed = 1;
nodes = (
(125,415,c),
(19,380,l),
(21,370,l),
(129,370,l),
(130,50,l),
(10,8,l),
(12,0,l),
(417,0,l),
(419,8,l),
(199,49,l),
(199,375,l),
(434,375,l),
(451,263,l),
(459,261,l),
(508,410,l),
(199,410,l),
(90,580,o),
(125,680,o),
(275,680,cs),
(344,680,o),
(433,661,o),
(479,639,c),
(495,487,l),
(503,485,l),
(557,639,l),
(471,691,o),
(375,720,o),
(285,720,cs),
(87,720,o),
(14,580,o)
);
}
);
};
layerId = "3B94C314-E299-4D41-8F3C-0B4533D01261";
name = "15 Sep 22, 19:45";
shapes = (
{
closed = 1;
nodes = (
(118,710,o),
(35,584,o),
(127,415,c),
(29,385,l),
(31,375,l),
(139,375,l),
(140,50,l),
(20,8,l),
(22,0,l),
(392,0,l),
(394,8,l),
(174,49,l),
(174,375,l),
(409,375,l),
(426,253,l),
(434,251,l),
(473,400,l),
(176,400,l),
(84,595,o),
(135,685,o),
(296,685,cs),
(353,685,o),
(413,672,o),
(459,644,c),
(475,502,l),
(483,500,l),
(527,641,l),
(464,686,o),
(376,710,o),
(296,710,cs)
);
}
);
width = 517;
},
{
anchors = (
{
name = bottom;
pos = (253,0);
},
{
name = top;
pos = (253,691);
}
);
layerId = "0CCC0E2D-406A-4672-8E6C-854B1DF78A27";
name = "Extended Thin";
shapes = (
{
closed = 1;
nodes = (
(138,415,l),
(28,384,l),
(30,374,l),
(138,374,l),
(139,50,l),
(19,8,l),
(21,0,l),
(395,0,l),
(397,8,l),
(177,49,l),
(177,375,l),
(412,375,l),
(429,273,l),
(437,271,l),
(478,401,l),
(177,401,l),
(177,543,ls),
(177,659,o),
(198,684,o),
(298,684,cs),
(353,684,o),
(404,674,o),
(462,657,c),
(478,532,l),
(486,530,l),
(531,666,l),
(438,698,o),
(364,711,o),
(307,711,cs),
(172,711,o),
(138,675,o),
(138,543,cs)
);
}
);
width = 518;
},
{
anchors = (
{
name = bottom;
pos = (261,0);
},
{
name = top;
pos = (261,700);
}
);
associatedMasterId = m002;
layerId = "AE1CE750-ED30-4483-9D32-0F4779513A2A";
name = "15 Sep 22, 19:47";
shapes = (
{
closed = 1;
nodes = (
(129,415,l),
(19,380,l),
(21,370,l),
(129,370,l),
(130,50,l),
(10,8,l),
(12,0,l),
(417,0,l),
(419,8,l),
(199,49,l),
(199,375,l),
(434,375,l),
(451,273,l),
(459,271,l),
(508,410,l),
(199,410,l),
(199,464,ls),
(199,650,o),
(218,680,o),
(336,680,cs),
(401,680,o),
(466,664,o),
(519,639,c),
(535,507,l),
(543,505,l),
(597,639,l),
(505,695,o),
(428,720,o),
(336,720,cs),
(194,720,o),
(129,632,o),
(129,464,cs)
);
}
);
width = 527;
}
);
unicode = 102;
}
{
glyphname = l;
kernLeft = l;
kernRight = l;
layers = (
{
anchors = (
{
name = bottom;
pos = (140,0);
},
{
name = center;
pos = (140,375);
},
{
name = top;
pos = (140,650);
},
{
name = topright;
pos = (242,691);
}
);
layerId = "0CCC0E2D-406A-4672-8E6C-854B1DF78A27";
shapes = (
{
closed = 1;
nodes = (
(120,631,l),
(120,50,l),
(-30,8,l),
(-28,0,l),
(307,0,l),
(309,8,l),
(159,50,l),
(159,711,l),
(-31,631,l),
(-29,623,l)
);
}
);
width = 318;
},
{
anchors = (
{
name = bottom;
pos = (154,0);
},
{
name = center;
pos = (154,375);
},
{
name = top;
pos = (154,650);
},
{
name = topright;
pos = (256,705);
}
);
layerId = m002;
shapes = (
{
closed = 1;
nodes = (
(106,645,l),
(106,50,l),
(-44,8,l),
(-42,0,l),
(341,0,l),
(343,8,l),
(193,50,l),
(193,725,l),
(-45,645,l),
(-43,637,l)
);
}
);
width = 338;
},
{
anchors = (
{
name = bottom;
pos = (126,0);
},
{
name = center;
pos = (126,375);
},
{
name = top;
pos = (126,650);
},
{
name = topright;
pos = (238,692);
}
);
layerId = m003;
shapes = (
{
closed = 1;
nodes = (
(89,637,l),
(89,47,l),
(-21,8,l),
(-19,0,l),
(270,0,l),
(272,8,l),
(162,47,l),
(162,712,l),
(-22,637,l),
(-18,629,l)
);
}
);
width = 259;
},
{
anchors = (
{
name = bottom;
pos = (115,0);
},
{
name = center;
pos = (115,375);
},
{
name = top;
pos = (115,650);
},
{
name = topright;
pos = (177,682);
}
);
layerId = "2C26E880-80A5-4D19-8A94-7D905A372841";
shapes = (
{
closed = 1;
nodes = (
(99,627,l),
(99,47,l),
(-11,8,l),
(-9,0,l),
(241,0,l),
(243,8,l),
(133,47,l),
(133,702,l),
(-12,627,l),
(-8,619,l)
);
}
);
width = 244;
}
);
unicode = 108;
}
{
glyphname = x;
kernLeft = x;
kernRight = x;
layers = (
{
anchors = (
{
name = bottom;
pos = (393,0);
},
{
name = top;
pos = (393,401);
}
);
guides = (
{
orientation = center;
pos = (-1070,35);
}
);
layerId = "0CCC0E2D-406A-4672-8E6C-854B1DF78A27";
shapes = (
{
closed = 1;
nodes = (
(404,209,l),
(597,351,l),
(735,393,l),
(733,401,l),
(434,401,l),
(432,393,l),
(554,351,l),
(388,228,l)
);
},
{
closed = 1;
nodes = (
(580,49,l),
(431,8,l),
(433,0,l),
(769,0,l),
(771,8,l),
(631,49,l),
(235,351,l),
(365,393,l),
(363,401,l),
(46,401,l),
(44,393,l),
(184,351,l)
);
},
{
closed = 1;
nodes = (
(385,227,l),
(157,50,l),
(19,8,l),
(21,0,l),
(346,0,l),
(348,8,l),
(204,49,l),
(400,205,l)
);
}
);
width = 790;
},
{
associatedMasterId = "0CCC0E2D-406A-4672-8E6C-854B1DF78A27";
guides = (
{
orientation = center;
angle = 180;
pos = (209,365);
},
{
orientation = center;
pos = (160,35);
}
);
layerId = "E5946ABA-4BB3-4E30-9523-8CAFC2F0417B";
name = "Mar 26 20, 19:39";
shapes = (
{
closed = 1;
nodes = (
(22,0,l),
(348,0,l),
(350,7,l),
(200,50,l),
(383,193,l),
(568,50,l),
(418,7,l),
(420,0,l),
(751,0,l),
(753,7,l),
(603,50,l),
(400,207,l),
(583,350,l),
(733,393,l),
(731,400,l),
(405,400,l),
(403,393,l),
(553,350,l),
(385,220,l),
(215,350,l),
(365,393,l),
(363,400,l),
(32,400,l),
(30,393,l),
(180,350,l),
(368,205,l),
(170,50,l),
(20,7,l)
);
}
);
width = 773;
},
{
associatedMasterId = "0CCC0E2D-406A-4672-8E6C-854B1DF78A27";
guides = (
{
orientation = center;
angle = 180;
pos = (207,365);
},
{
orientation = center;
pos = (158,35);
}
);
layerId = "6FDBFD38-D991-4EB7-89FC-0295DA9BB3B0";
name = "Mar 26 20, 19:47";
shapes = (
{
closed = 1;
nodes = (
(22,0,l),
(343,0,l),
(345,7,l),
(195,50,l),
(575,355,l),
(725,393,l),
(723,400,l),
(402,400,l),
(400,393,l),
(550,355,l),
(170,50,l),
(20,7,l)
);
},
{
closed = 1;
nodes = (
(595,50,l),
(215,355,l),
(365,393,l),
(363,400,l),
(42,400,l),
(40,393,l),
(190,355,l),
(570,50,l),
(420,7,l),
(422,0,l),
(743,0,l),
(745,7,l)
);
}
);
width = 751;
},
{
anchors = (
{
name = bottom;
pos = (414,0);
},
{
name = top;
pos = (414,415);
}
);
guides = (
{
orientation = center;
pos = (-649,35);
}
);
layerId = m002;
shapes = (
{
closed = 1;
nodes = (
(436,203,l),
(650,365,l),
(788,407,l),
(786,415,l),
(455,415,l),
(453,407,l),
(575,365,l),
(404,222,l)
);
},
{
closed = 1;
nodes = (
(575,49,l),
(426,8,l),
(428,0,l),
(817,0,l),
(819,8,l),
(679,49,l),
(276,365,l),
(406,407,l),
(404,415,l),
(34,415,l),
(32,407,l),
(172,365,l)
);
},
{
closed = 1;
nodes = (
(398,221,l),
(144,50,l),
(6,8,l),
(8,0,l),
(367,0,l),
(369,8,l),
(225,49,l),
(425,199,l)
);
}
);
width = 825;
},
{
associatedMasterId = m002;
guides = (
{
orientation = center;
angle = 180;
pos = (209,365);
},
{
orientation = center;
pos = (160,35);
}
);
layerId = "627095D4-CF3A-40F6-8F14-E1270A35E7F9";
name = "Mar 26 20, 19:39";
shapes = (
{
closed = 1;
nodes = (
(22,0,l),
(348,0,l),
(350,7,l),
(200,50,l),
(383,193,l),
(568,50,l),
(418,7,l),
(420,0,l),
(751,0,l),
(753,7,l),
(603,50,l),
(400,207,l),
(583,350,l),
(733,393,l),
(731,400,l),
(405,400,l),
(403,393,l),
(553,350,l),
(385,220,l),
(215,350,l),
(365,393,l),
(363,400,l),
(32,400,l),
(30,393,l),
(180,350,l),
(368,205,l),
(170,50,l),
(20,7,l)
);
}
);
width = 773;
},
{
associatedMasterId = m002;
guides = (
{
orientation = center;
angle = 180;
pos = (207,365);
},
{
orientation = center;
pos = (158,35);
}
);
layerId = "15B8CF4E-8E84-414B-BE8C-D61F7D81ADAD";
name = "Mar 26 20, 19:47";
shapes = (
{
closed = 1;
nodes = (
(22,0,l),
(343,0,l),
(345,7,l),
(195,50,l),
(575,355,l),
(725,393,l),
(723,400,l),
(402,400,l),
(400,393,l),
(550,355,l),
(170,50,l),
(20,7,l)
);
},
{
closed = 1;
nodes = (
(595,50,l),
(215,355,l),
(365,393,l),
(363,400,l),
(42,400,l),
(40,393,l),
(190,355,l),
(570,50,l),
(420,7,l),
(422,0,l),
(743,0,l),
(745,7,l)
);
}
);
width = 751;
},
{
anchors = (
{
name = bottom;
pos = (234,0);
},
{
name = top;
pos = (234,402);
}
);
guides = (
{
orientation = center;
pos = (-1711,35);
}
);
layerId = m003;
shapes = (
{
closed = 1;
nodes = (
(232,195,l),
(343,351,l),
(413,394,l),
(411,402,l),
(237,402,l),
(235,394,l),
(295,351,l),
(208,212,l)
);
},
{
closed = 1;
nodes = (
(302,50,l),
(232,8,l),
(234,0,l),
(437,0,l),
(439,8,l),
(369,50,l),
(162,351,l),
(222,394,l),
(220,402,l),
(28,402,l),
(26,394,l),
(96,351,l)
);
},
{
closed = 1;
nodes = (
(209,221,l),
(83,51,l),
(3,8,l),
(5,0,l),
(203,0,l),
(205,8,l),
(135,50,l),
(233,203,l)
);
}
);
width = 442;
},
{
associatedMasterId = m003;
guides = (
{
orientation = center;
angle = 180;
pos = (209,365);
},
{
orientation = center;
pos = (160,35);
}
);
layerId = "EFE2DC20-B61B-420E-81A3-DDCF8F70E9DF";
name = "Mar 26 20, 19:39";
shapes = (
{
closed = 1;
nodes = (
(22,0,l),
(348,0,l),
(350,7,l),
(200,50,l),
(383,193,l),
(568,50,l),
(418,7,l),
(420,0,l),
(751,0,l),
(753,7,l),
(603,50,l),
(400,207,l),
(583,350,l),
(733,393,l),
(731,400,l),
(405,400,l),
(403,393,l),
(553,350,l),
(385,220,l),
(215,350,l),
(365,393,l),
(363,400,l),
(32,400,l),
(30,393,l),
(180,350,l),
(368,205,l),
(170,50,l),
(20,7,l)
);
}
);
width = 773;
},
{
associatedMasterId = m003;
guides = (
{
orientation = center;
angle = 180;
pos = (207,365);
},
{
orientation = center;
pos = (158,35);
}
);
layerId = "42DBB207-8217-41FA-BA7C-2FF37D2E8C44";
name = "Mar 26 20, 19:47";
shapes = (
{
closed = 1;
nodes = (
(22,0,l),
(343,0,l),
(345,7,l),
(195,50,l),
(575,355,l),
(725,393,l),
(723,400,l),
(402,400,l),
(400,393,l),
(550,355,l),
(170,50,l),
(20,7,l)
);
},
{
closed = 1;
nodes = (
(595,50,l),
(215,355,l),
(365,393,l),
(363,400,l),
(42,400,l),
(40,393,l),
(190,355,l),
(570,50,l),
(420,7,l),
(422,0,l),
(743,0,l),
(745,7,l)
);
}
);
width = 751;
},
{
anchors = (
{
name = bottom;
pos = (224,0);
},
{
name = top;
pos = (224,392);
}
);
layerId = "2C26E880-80A5-4D19-8A94-7D905A372841";
shapes = (
{
closed = 1;
nodes = (
(222,194,l),
(315,347,l),
(385,384,l),
(383,392,l),
(227,392,l),
(225,384,l),
(285,347,l),
(205,216,l)
);
},
{
closed = 1;
nodes = (
(303,45,l),
(233,8,l),
(235,0,l),
(405,0,l),
(407,8,l),
(337,45,l),
(137,347,l),
(197,384,l),
(195,392,l),
(35,392,l),
(33,384,l),
(103,347,l)
);
},
{
closed = 1;
nodes = (
(201,218,l),
(94,46,l),
(14,8,l),
(16,0,l),
(194,0,l),
(196,8,l),
(126,45,l),
(218,197,l)
);
}
);
width = 421;
}
);
unicode = 120;
}
{
glyphname = section;
layers = (
{
layerId = "0CCC0E2D-406A-4672-8E6C-854B1DF78A27";
shapes = (
{
closed = 1;
nodes = (
(482,222,l),
(540,252,o),
(581,312,o),
(580,365,cs),
(579,422,o),
(529,453,o),
(424,462,cs),
(271,475,ls),
(184,482,o),
(139,509,o),
(139,554,cs),
(139,612,o),
(219,661,o),
(318,664,cs),
(361,666,o),
(421,660,o),
(480,647,c),
(495,541,l),
(503,539,l),
(539,663,l),
(497,679,o),
(393,692,o),
(325,690,cs),
(199,687,o),
(108,627,o),
(108,547,cs),
(108,488,o),
(157,453,o),
(253,445,cs),
(406,432,ls),
(508,423,o),
(546,403,o),
(546,357,cs),
(546,310,o),
(506,255,o),
(453,231,c)
);
},
{
closed = 1;
nodes = (
(176,471,l),
(121,440,o),
(91,398,o),
(91,350,cs),
(91,286,o),
(143,246,o),
(236,238,cs),
(389,225,ls),
(488,216,o),
(530,188,o),
(530,130,cs),
(530,56,o),
(460,11,o),
(341,9,cs),
(267,8,o),
(182,23,o),
(139,45,c),
(124,152,l),
(116,154,l),
(80,30,l),
(138,0,o),
(251,-22,o),
(336,-20,cs),
(471,-16,o),
(564,49,o),
(563,138,cs),
(562,206,o),
(508,246,o),
(407,255,cs),
(254,268,ls),
(169,275,o),
(125,305,o),
(125,357,cs),
(125,400,o),
(155,439,o),
(209,463,c)
);
}
);
width = 660;
},
{
layerId = m002;
shapes = (
{
closed = 1;
nodes = (
(474,223,l),
(551,247,o),
(603,301,o),
(602,373,cs),
(601,442,o),
(548,482,o),
(428,494,cs),
(275,509,ls),
(189,517,o),
(173,532,o),
(173,571,cs),
(173,627,o),
(212,660,o),
(307,663,cs),
(382,665,o),
(491,644,o),
(515,627,c),
(530,529,l),
(538,527,l),
(589,647,l),
(533,682,o),
(415,708,o),
(330,706,cs),
(190,703,o),
(97,636,o),
(97,539,cs),
(97,466,o),
(149,429,o),
(258,416,cs),
(410,398,ls),
(503,387,o),
(531,370,o),
(531,331,cs),
(531,283,o),
(493,264,o),
(444,260,c)
);
},
{
closed = 1;
nodes = (
(184,458,l),
(134,439,o),
(91,372,o),
(91,324,cs),
(91,259,o),
(161,208,o),
(268,196,cs),
(419,179,ls),
(508,169,o),
(547,148,o),
(547,109,cs),
(547,57,o),
(497,32,o),
(383,30,cs),
(303,29,o),
(187,50,o),
(139,77,c),
(124,171,l),
(116,173,l),
(64,49,l),
(134,6,o),
(250,-20,o),
(366,-17,cs),
(526,-13,o),
(626,49,o),
(625,142,cs),
(624,222,o),
(553,263,o),
(437,275,cs),
(284,291,ls),
(182,302,o),
(157,329,o),
(157,364,cs),
(157,393,o),
(178,419,o),
(204,425,c)
);
}
);
width = 680;
},
{
layerId = m003;
shapes = (
{
closed = 1;
nodes = (
(324,208,l),
(356,241,o),
(380,299,o),
(380,341,cs),
(380,393,o),
(355,428,o),
(286,471,cs),
(207,520,ls),
(176,539,o),
(158,564,o),
(158,604,cs),
(158,650,o),
(180,673,o),
(230,673,cs),
(256,673,o),
(287,668,o),
(297,661,c),
(317,559,l),
(325,557,l),
(361,687,l),
(343,699,o),
(282,712,o),
(241,712,cs),
(159,712,o),
(104,654,o),
(104,570,cs),
(104,517,o),
(125,483,o),
(198,436,cs),
(252,401,ls),
(311,363,o),
(329,336,o),
(329,306,cs),
(329,284,o),
(320,269,o),
(290,233,c)
);
},
{
closed = 1;
nodes = (
(138,482,l),
(107,451,o),
(84,393,o),
(84,350,cs),
(84,300,o),
(114,245,o),
(166,218,cs),
(240,179,ls),
(289,154,o),
(313,135,o),
(313,98,cs),
(313,53,o),
(279,25,o),
(227,23,cs),
(197,22,o),
(145,30,o),
(132,39,c),
(112,138,l),
(104,140,l),
(68,17,l),
(89,-1,o),
(160,-19,o),
(208,-19,cs),
(300,-19,o),
(367,44,o),
(367,133,cs),
(367,187,o),
(341,215,o),
(250,264,cs),
(196,293,ls),
(157,314,o),
(135,341,o),
(135,371,cs),
(135,395,o),
(150,437,o),
(167,461,c)
);
}
);
width = 448;
},
{
layerId = "2C26E880-80A5-4D19-8A94-7D905A372841";
shapes = (
{
closed = 1;
nodes = (
(276,194,l),
(315,215,o),
(341,270,o),
(341,331,cs),
(341,387,o),
(320,416,o),
(247,459,cs),
(198,488,ls),
(158,511,o),
(136,550,o),
(136,596,cs),
(136,647,o),
(167,679,o),
(217,679,cs),
(227,679,o),
(238,678,o),
(260,675,c),
(280,574,l),
(288,572,l),
(312,691,l),
(291,696,o),
(247,701,o),
(220,701,cs),
(147,701,o),
(107,662,o),
(107,590,cs),
(107,533,o),
(132,490,o),
(186,458,cs),
(235,428,ls),
(293,392,o),
(311,367,o),
(311,321,cs),
(311,272,o),
(287,225,o),
(254,209,c)
);
},
{
closed = 1;
nodes = (
(156,493,l),
(113,476,o),
(87,434,o),
(87,381,cs),
(87,329,o),
(112,290,o),
(166,257,cs),
(215,227,ls),
(271,193,o),
(291,162,o),
(291,112,cs),
(291,52,o),
(254,5,o),
(205,3,cs),
(185,2,o),
(156,9,o),
(133,20,c),
(113,163,l),
(105,166,l),
(80,7,l),
(107,-9,o),
(157,-20,o),
(197,-20,cs),
(271,-20,o),
(321,38,o),
(321,122,cs),
(321,181,o),
(297,216,o),
(227,258,cs),
(178,287,ls),
(136,312,o),
(116,345,o),
(116,387,cs),
(116,431,o),
(141,467,o),
(179,477,c)
);
}
);
width = 421;
}
);
unicode = 167;
}
{
glyphname = copyright;
layers = (
{
layerId = "0CCC0E2D-406A-4672-8E6C-854B1DF78A27";
shapes = (
{
closed = 1;
nodes = (
(231,-20,o),
(80,120,o),
(80,299,cs),
(80,482,o),
(229,625,o),
(454,625,cs),
(681,625,o),
(832,485,o),
(832,306,cs),
(832,123,o),
(683,-20,o),
(458,-20,cs)
);
},
{
closed = 1;
nodes = (
(244,595,o),
(114,465,o),
(114,299,cs),
(114,137,o),
(255,11,o),
(469,11,cs),
(668,11,o),
(798,141,o),
(798,307,cs),
(798,469,o),
(657,595,o),
(443,595,cs)
);
},
{
closed = 1;
nodes = (
(223,195,o),
(326,123,o),
(456,123,cs),
(540,123,o),
(609,151,o),
(659,191,c),
(649,201,l),
(604,172,o),
(545,150,o),
(460,150,cs),
(340,150,o),
(258,220,o),
(258,304,cs),
(258,384,o),
(333,460,o),
(465,460,cs),
(528,460,o),
(569,453,o),
(603,442,c),
(623,334,l),
(631,332,l),
(665,451,l),
(626,468,o),
(549,484,o),
(474,484,cs),
(323,484,o),
(223,401,o),
(223,290,cs)
);
}
);
width = 912;
},
{
layerId = m002;
shapes = (
{
closed = 1;
nodes = (
(219,-20,o),
(64,99,o),
(64,299,cs),
(64,503,o),
(217,625,o),
(470,625,cs),
(722,625,o),
(878,506,o),
(878,306,cs),
(878,102,o),
(724,-20,o),
(474,-20,cs)
);
},
{
closed = 1;
nodes = (
(254,574,o),
(126,473,o),
(126,299,cs),
(126,132,o),
(260,32,o),
(482,32,cs),
(687,32,o),
(816,133,o),
(816,307,cs),
(816,475,o),
(681,574,o),
(460,574,cs)
);
},
{
closed = 1;
nodes = (
(219,200,o),
(329,123,o),
(488,123,cs),
(566,123,o),
(628,141,o),
(680,183,c),
(662,202,l),
(637,177,o),
(581,167,o),
(525,167,cs),
(371,167,o),
(290,214,o),
(290,312,cs),
(290,409,o),
(349,439,o),
(470,439,cs),
(537,439,o),
(609,421,o),
(643,412,c),
(652,323,l),
(660,321,l),
(693,443,l),
(634,471,o),
(577,484,o),
(494,484,cs),
(337,484,o),
(219,410,o),
(219,304,cs)
);
}
);
width = 942;
},
{
layerId = m003;
shapes = (
{
closed = 1;
nodes = (
(166,-20,o),
(48,121,o),
(48,300,cs),
(48,479,o),
(162,620,o),
(309,620,cs),
(461,620,o),
(579,481,o),
(579,306,cs),
(579,123,o),
(465,-20,o),
(318,-20,cs)
);
},
{
closed = 1;
nodes = (
(180,578,o),
(99,465,o),
(99,298,cs),
(99,135,o),
(190,23,o),
(328,23,cs),
(447,23,o),
(528,139,o),
(528,309,cs),
(528,469,o),
(436,578,o),
(299,578,cs)
);
},
{
closed = 1;
nodes = (
(196,189,o),
(239,127,o),
(310,127,cs),
(346,127,o),
(372,143,o),
(414,193,c),
(403,206,l),
(374,179,o),
(353,168,o),
(331,168,cs),
(280,168,o),
(254,211,o),
(254,304,cs),
(254,395,o),
(272,438,o),
(311,438,cs),
(330,438,o),
(351,431,o),
(359,421,c),
(368,339,l),
(371,338,l),
(400,455,l),
(355,472,o),
(343,474,o),
(327,474,cs),
(244,474,o),
(196,409,o),
(196,296,cs)
);
}
);
width = 627;
},
{
layerId = "2C26E880-80A5-4D19-8A94-7D905A372841";
shapes = (
{
closed = 1;
nodes = (
(152,-20,o),
(60,102,o),
(60,294,cs),
(60,491,o),
(159,620,o),
(310,620,cs),
(453,620,o),
(545,498,o),
(545,306,cs),
(545,109,o),
(447,-20,o),
(297,-20,cs)
);
},
{
closed = 1;
nodes = (
(172,592,o),
(91,480,o),
(91,302,cs),
(91,124,o),
(176,7,o),
(305,7,cs),
(434,7,o),
(515,120,o),
(515,298,cs),
(515,479,o),
(433,592,o),
(302,592,cs)
);
},
{
closed = 1;
nodes = (
(199,182,o),
(233,127,o),
(298,127,cs),
(339,127,o),
(375,153,o),
(398,199,c),
(390,205,l),
(371,174,o),
(340,155,o),
(308,155,cs),
(259,155,o),
(230,208,o),
(230,298,cs),
(230,396,o),
(258,450,o),
(307,450,cs),
(317,450,o),
(327,448,o),
(332,445,c),
(344,349,l),
(352,347,l),
(379,461,l),
(358,469,o),
(333,474,o),
(313,474,cs),
(242,474,o),
(199,404,o),
(199,286,cs)
);
}
);
width = 605;
}
);
unicode = 169;
}
{
glyphname = threesuperior;
layers = (
{
layerId = "0CCC0E2D-406A-4672-8E6C-854B1DF78A27";
shapes = (
{
closed = 1;
nodes = (
(338,446,o),
(389,410,o),
(389,357,cs),
(389,296,o),
(315,258,o),
(210,258,cs),
(161,258,o),
(131,268,o),
(75,290,c),
(65,376,l),
(61,377,l),
(30,274,l),
(97,247,o),
(146,233,o),
(210,233,cs),
(332,233,o),
(422,288,o),
(422,362,cs),
(422,423,o),
(356,471,o),
(264,471,cs),
(213,471,o),
(150,452,o),
(126,437,c),
(132,431,l),
(398,590,l),
(382,605,l),
(43,612,l),
(67,484,l),
(72,485,l),
(91,589,l),
(375,589,l),
(367,597,l),
(112,444,l),
(126,421,l),
(167,436,o),
(216,446,o),
(256,446,cs)
);
}
);
width = 452;
},
{
layerId = m002;
shapes = (
{
closed = 1;
nodes = (
(421,438,o),
(466,399,o),
(466,348,cs),
(466,295,o),
(415,265,o),
(304,265,cs),
(227,265,o),
(129,302,o),
(118,323,c),
(106,417,l),
(102,418,l),
(62,302,l),
(112,255,o),
(195,233,o),
(304,233,cs),
(423,233,o),
(537,289,o),
(537,369,cs),
(537,432,o),
(461,483,o),
(386,483,cs),
(333,483,o),
(270,465,o),
(253,453,c),
(246,436,l),
(523,578,l),
(513,605,l),
(84,612,l),
(108,458,l),
(113,459,l),
(132,563,l),
(461,568,l),
(460,593,l),
(164,444,l),
(202,413,l),
(244,431,o),
(286,438,o),
(332,438,cs)
);
}
);
width = 599;
},
{
layerId = m003;
shapes = (
{
closed = 1;
nodes = (
(204,432,o),
(226,401,o),
(226,350,cs),
(226,293,o),
(199,266,o),
(148,266,cs),
(127,266,o),
(108,272,o),
(84,285,c),
(74,377,l),
(70,378,l),
(37,259,l),
(62,243,o),
(105,233,o),
(139,233,cs),
(217,233,o),
(288,296,o),
(288,367,cs),
(288,424,o),
(242,469,o),
(185,469,cs),
(167,469,o),
(154,464,o),
(128,449,c),
(131,434,l),
(272,580,l),
(240,605,l),
(36,612,l),
(64,472,l),
(68,473,l),
(82,573,l),
(248,578,l),
(237,605,l),
(74,435,l),
(100,404,l),
(119,422,o),
(141,432,o),
(164,432,cs)
);
}
);
width = 323;
},
{
layerId = "2C26E880-80A5-4D19-8A94-7D905A372841";
shapes = (
{
closed = 1;
nodes = (
(160,437,o),
(192,402,o),
(192,357,cs),
(192,298,o),
(156,258,o),
(102,258,cs),
(84,258,o),
(60,261,o),
(53,265,c),
(44,352,l),
(40,353,l),
(13,243,l),
(27,238,o),
(69,233,o),
(93,233,cs),
(166,233,o),
(224,290,o),
(224,362,cs),
(224,421,o),
(187,460,o),
(130,460,cs),
(106,460,o),
(84,453,o),
(69,441,c),
(78,430,l),
(202,590,l),
(190,605,l),
(6,612,l),
(34,492,l),
(38,493,l),
(52,587,l),
(182,588,l),
(184,602,l),
(56,435,l),
(67,418,l),
(81,430,o),
(100,437,o),
(119,437,cs)
);
}
);
width = 236;
}
);
unicode = 179;
}
{
glyphname = paragraph;
layers = (
{
layerId = "0CCC0E2D-406A-4672-8E6C-854B1DF78A27";
shapes = (
{
closed = 1;
nodes = (
(527,50,l),
(527,650,l),
(677,692,l),
(675,700,l),
(326,700,ls),
(122,700,o),
(40,654,o),
(40,540,cs),
(40,423,o),
(122,375,o),
(326,373,cs),
(421,372,l),
(421,50,l),
(241,8,l),
(243,0,l),
(675,0,l),
(677,8,l)
);
},
{
closed = 1;
nodes = (
(503,650,l),
(503,50,l),
(448,50,l),
(448,650,l)
);
}
);
width = 747;
},
{
layerId = m002;
shapes = (
{
closed = 1;
nodes = (
(590,50,l),
(590,650,l),
(740,692,l),
(738,700,l),
(328,700,ls),
(144,700,o),
(10,650,o),
(10,524,cs),
(10,400,o),
(134,345,o),
(328,343,cs),
(423,342,l),
(423,50,l),
(243,8,l),
(245,0,l),
(738,0,l),
(740,8,l)
);
},
{
closed = 1;
nodes = (
(530,650,l),
(530,50,l),
(484,50,l),
(484,650,l)
);
}
);
width = 794;
},
{
layerId = m003;
shapes = (
{
closed = 1;
nodes = (
(282,45,l),
(282,645,l),
(393,682,l),
(391,690,l),
(141,690,ls),
(66,690,o),
(18,626,o),
(18,528,cs),
(18,425,o),
(64,351,o),
(131,348,cs),
(157,347,l),
(157,45,l),
(46,8,l),
(48,0,l),
(391,0,l),
(393,8,l)
);
},
{
closed = 1;
nodes = (
(235,645,l),
(235,45,l),
(207,45,l),
(207,645,l)
);
}
);
width = 451;
},
{
layerId = "2C26E880-80A5-4D19-8A94-7D905A372841";
shapes = (
{
closed = 1;
nodes = (
(241,45,l),
(241,645,l),
(347,682,l),
(345,690,l),
(142,690,ls),
(78,690,o),
(30,625,o),
(30,539,cs),
(30,434,o),
(66,375,o),
(132,372,cs),
(153,371,l),
(153,45,l),
(47,8,l),
(49,0,l),
(345,0,l),
(347,8,l)
);
},
{
closed = 1;
nodes = (
(216,645,l),
(216,45,l),
(180,45,l),
(180,645,l)
);
}
);
width = 417;
}
);
unicode = 182;
}
{
glyphname = multiply;
layers = (
{
layerId = "0CCC0E2D-406A-4672-8E6C-854B1DF78A27";
shapes = (
{
closed = 1;
nodes = (
(72,415,l),
(206,280,l),
(70,146,l),
(90,125,l),
(225,261,l),
(360,125,l),
(379,145,l),
(244,280,l),
(380,415,l),
(361,435,l),
(225,300,l),
(91,435,l)
);
}
);
width = 450;
},
{
layerId = m002;
shapes = (
{
closed = 1;
nodes = (
(54,427,l),
(200,280,l),
(55,135,l),
(97,95,l),
(243,237,l),
(387,91,l),
(431,134,l),
(285,279,l),
(431,426,l),
(388,468,l),
(243,320,l),
(97,468,l)
);
}
);
width = 485;
},
{
layerId = m003;
shapes = (
{
closed = 1;
nodes = (
(57,411,l),
(187,280,l),
(58,151,l),
(92,117,l),
(221,246,l),
(350,115,l),
(386,150,l),
(256,279,l),
(385,410,l),
(351,444,l),
(221,313,l),
(92,444,l)
);
}
);
width = 444;
},
{
layerId = "2C26E880-80A5-4D19-8A94-7D905A372841";
shapes = (
{
closed = 1;
nodes = (
(71,402,l),
(192,280,l),
(69,160,l),
(87,141,l),
(209,263,l),
(330,141,l),
(347,159,l),
(226,280,l),
(348,401,l),
(331,419,l),
(209,298,l),
(88,419,l)
);
}
);
width = 417;
}
);
unicode = 215;
}
{
glyphname = thorn;
kernLeft = l;
kernRight = o;
layers = (
{
layerId = "0CCC0E2D-406A-4672-8E6C-854B1DF78A27";
shapes = (
{
closed = 1;
nodes = (
(139,303,l),
(194,357,o),
(293,392,o),
(383,392,cs),
(524,392,o),
(628,311,o),
(628,200,cs),
(628,89,o),
(522,11,o),
(369,11,cs),
(282,11,o),
(194,34,o),
(139,73,c)
);
},
{
closed = 1;
nodes = (
(-37,623,l),
(100,631,l),
(100,-191,l),
(-30,-235,l),
(-28,-241,l),
(307,-241,l),
(309,-235,l),
(139,-191,l),
(139,35,l),
(202,-1,o),
(276,-18,o),
(357,-18,cs),
(540,-18,o),
(667,77,o),
(667,213,cs),
(667,336,o),
(556,423,o),
(398,423,cs),
(311,423,o),
(215,395,o),
(139,338,c),
(139,711,l),
(-41,631,l)
);
}
);
width = 711;
},
{
layerId = m002;
shapes = (
{
closed = 1;
nodes = (
(173,285,l),
(245,354,o),
(321,384,o),
(413,384,cs),
(544,384,o),
(621,315,o),
(621,197,cs),
(621,93,o),
(525,20,o),
(389,20,cs),
(301,20,o),
(214,50,o),
(173,92,c)
);
},
{
closed = 1;
nodes = (
(-51,637,l),
(86,645,l),
(86,-205,l),
(-44,-249,l),
(-42,-255,l),
(341,-255,l),
(343,-249,l),
(173,-205,l),
(173,27,l),
(225,-2,o),
(304,-21,o),
(369,-21,cs),
(568,-21,o),
(707,86,o),
(707,229,cs),
(707,347,o),
(597,434,o),
(453,434,cs),
(359,434,o),
(254,400,o),
(173,338,c),
(173,725,l),
(-55,645,l)
);
}
);
width = 736;
},
{
layerId = m003;
shapes = (
{
closed = 1;
nodes = (
(118,312,l),
(142,352,o),
(170,375,o),
(206,375,cs),
(271,375,o),
(314,300,o),
(314,188,cs),
(314,83,o),
(274,20,o),
(207,20,cs),
(174,20,o),
(139,34,o),
(118,56,c)
);
},
{
closed = 1;
nodes = (
(-62,671,l),
(46,657,l),
(46,-195,l),
(-28,-234,l),
(-26,-242,l),
(226,-242,l),
(228,-234,l),
(118,-195,l),
(118,11,l),
(138,-6,o),
(168,-20,o),
(200,-20,cs),
(305,-20,o),
(386,86,o),
(386,216,cs),
(386,336,o),
(324,422,o),
(231,422,cs),
(186,422,o),
(146,401,o),
(116,354,c),
(116,712,l),
(-63,679,l)
);
}
);
width = 420;
},
{
layerId = "2C26E880-80A5-4D19-8A94-7D905A372841";
shapes = (
{
closed = 1;
nodes = (
(95,327,l),
(119,365,o),
(158,385,o),
(198,385,cs),
(273,385,o),
(323,310,o),
(323,188,cs),
(323,73,o),
(277,7,o),
(195,7,cs),
(161,7,o),
(122,19,o),
(95,37,c)
);
},
{
closed = 1;
nodes = (
(-46,623,l),
(61,629,l),
(61,-185,l),
(-46,-224,l),
(-44,-232,l),
(203,-232,l),
(205,-224,l),
(95,-185,l),
(95,6,l),
(125,-11,o),
(161,-20,o),
(192,-20,cs),
(290,-20,o),
(358,50,o),
(358,202,cs),
(358,336,o),
(299,412,o),
(204,412,cs),
(156,412,o),
(118,392,o),
(95,364,c),
(95,702,l),
(-50,631,l)
);
}
);
width = 397;
}
);
metricLeft = p;
metricRight = p;
unicode = 254;
}
{
glyphname = tildecomb;
layers = (
{
anchors = (
{
name = _top;
pos = (235,410);
}
);
layerId = "0CCC0E2D-406A-4672-8E6C-854B1DF78A27";
shapes = (
{
closed = 1;
nodes = (
(376,624,l),
(363,597,o),
(334,582,o),
(303,582,cs),
(257,582,o),
(244,621,o),
(179,621,cs),
(132,621,o),
(95,598,o),
(85,540,c),
(93,539,l),
(113,568,o),
(139,581,o),
(167,581,cs),
(211,581,o),
(233,542,o),
(294,542,cs),
(349,542,o),
(379,576,o),
(384,622,c)
);
}
);
width = 489;
},
{
anchors = (
{
name = _top;
pos = (235,410);
}
);
layerId = m002;
shapes = (
{
closed = 1;
nodes = (
(408,638,l),
(392,611,o),
(353,601,o),
(322,601,cs),
(262,601,o),
(243,646,o),
(179,646,cs),
(114,646,o),
(59,610,o),
(48,545,c),
(63,539,l),
(84,571,o),
(119,577,o),
(149,577,cs),
(207,577,o),
(232,531,o),
(294,531,cs),
(367,531,o),
(415,582,o),
(421,633,c)
);
}
);
width = 489;
},
{
anchors = (
{
name = _top;
pos = (166,402);
}
);
layerId = m003;
shapes = (
{
closed = 1;
nodes = (
(269,606,l),
(260,580,o),
(240,564,o),
(219,564,cs),
(183,564,o),
(174,608,o),
(131,608,cs),
(95,608,o),
(52,579,o),
(44,513,c),
(62,508,l),
(76,539,o),
(93,550,o),
(112,550,cs),
(147,550,o),
(161,506,o),
(203,506,cs),
(244,506,o),
(283,550,o),
(287,602,c)
);
}
);
width = 332;
},
{
anchors = (
{
name = _top;
pos = (166,391);
}
);
layerId = "2C26E880-80A5-4D19-8A94-7D905A372841";
shapes = (
{
closed = 1;
nodes = (
(245,590,l),
(238,565,o),
(223,550,o),
(205,550,cs),
(177,550,o),
(173,589,o),
(131,589,cs),
(105,589,o),
(79,574,o),
(73,515,c),
(86,514,l),
(98,543,o),
(111,554,o),
(126,554,cs),
(155,554,o),
(164,515,o),
(203,515,cs),
(234,515,o),
(256,541,o),
(260,587,c)
);
}
);
width = 332;
}
);
unicode = 771;
}
{
glyphname = cedillacomb;
layers = (
{
anchors = (
{
name = _bottom;
pos = (235,0);
}
);
layerId = "0CCC0E2D-406A-4672-8E6C-854B1DF78A27";
shapes = (
{
closed = 1;
nodes = (
(165,-86,l),
(180,-92,l),
(192,-88,o),
(203,-86,o),
(214,-86,cs),
(247,-86,o),
(269,-107,o),
(269,-141,cs),
(269,-177,o),
(245,-197,o),
(202,-197,cs),
(163,-197,o),
(119,-180,o),
(100,-157,c),
(90,-169,l),
(116,-201,o),
(160,-221,o),
(205,-221,cs),
(260,-221,o),
(304,-187,o),
(304,-139,cs),
(304,-96,o),
(267,-67,o),
(225,-67,cs),
(209,-67,o),
(192,-71,o),
(176,-80,c),
(197,-85,l),
(255,0,l),
(221,0,l)
);
}
);
width = 425;
},
{
anchors = (
{
name = _bottom;
pos = (235,0);
}
);
layerId = m002;
shapes = (
{
closed = 1;
nodes = (
(149,-86,l),
(174,-101,l),
(179,-99,o),
(197,-97,o),
(205,-97,cs),
(228,-97,o),
(243,-108,o),
(243,-141,cs),
(243,-160,o),
(218,-180,o),
(172,-180,cs),
(127,-180,o),
(114,-175,o),
(100,-160,c),
(90,-169,l),
(112,-197,o),
(166,-221,o),
(221,-221,cs),
(281,-221,o),
(329,-184,o),
(329,-139,cs),
(329,-92,o),
(290,-66,o),
(233,-66,cs),
(214,-66,o),
(202,-69,o),
(192,-72,c),
(194,-85,l),
(237,0,l),
(191,0,l)
);
}
);
width = 425;
},
{
anchors = (
{
name = _bottom;
pos = (164,0);
}
);
layerId = m003;
shapes = (
{
closed = 1;
nodes = (
(95,-86,l),
(117,-99,l),
(124,-97,o),
(128,-96,o),
(137,-96,cs),
(152,-96,o),
(163,-106,o),
(163,-130,cs),
(163,-161,o),
(143,-176,o),
(121,-176,cs),
(103,-176,o),
(82,-169,o),
(59,-159,c),
(48,-169,l),
(74,-189,o),
(110,-204,o),
(136,-204,cs),
(191,-204,o),
(222,-169,o),
(222,-129,cs),
(222,-98,o),
(199,-74,o),
(166,-74,cs),
(154,-74,o),
(142,-77,o),
(129,-82,c),
(133,-85,l),
(184,0,l),
(144,0,l)
);
}
);
width = 270;
},
{
anchors = (
{
name = _bottom;
pos = (145,0);
}
);
layerId = "2C26E880-80A5-4D19-8A94-7D905A372841";
shapes = (
{
closed = 1;
nodes = (
(96,-86,l),
(115,-93,l),
(121,-88,o),
(128,-86,o),
(136,-86,cs),
(156,-86,o),
(177,-98,o),
(177,-135,cs),
(177,-164,o),
(156,-183,o),
(129,-183,cs),
(106,-183,o),
(84,-171,o),
(66,-156,c),
(58,-171,l),
(81,-194,o),
(108,-205,o),
(132,-205,cs),
(173,-205,o),
(206,-172,o),
(206,-128,cs),
(206,-89,o),
(174,-68,o),
(145,-68,cs),
(135,-68,o),
(125,-72,o),
(117,-77,c),
(121,-85,l),
(158,0,l),
(133,0,l)
);
}
);
width = 266;
}
);
unicode = 807;
}
{
glyphname = strokeshortcomb;
layers = (
{
layerId = "0CCC0E2D-406A-4672-8E6C-854B1DF78A27";
shapes = (
{
closed = 1;
nodes = (
(70,229,l),
(510,209,l),
(510,269,l),
(70,244,l)
);
}
);
width = 580;
},
{
layerId = m002;
shapes = (
{
closed = 1;
nodes = (
(70,229,l),
(510,209,l),
(510,269,l),
(70,252,l)
);
}
);
width = 580;
},
{
layerId = m003;
shapes = (
{
closed = 1;
nodes = (
(70,235,l),
(310,215,l),
(310,269,l),
(70,250,l)
);
}
);
width = 380;
},
{
layerId = "2C26E880-80A5-4D19-8A94-7D905A372841";
shapes = (
{
closed = 1;
nodes = (
(70,235,l),
(310,215,l),
(310,269,l),
(70,244,l)
);
}
);
width = 380;
}
);
unicode = 821;
}
{
glyphname = mu;
layers = (
{
layerId = "0CCC0E2D-406A-4672-8E6C-854B1DF78A27";
shapes = (
{
closed = 1;
nodes = (
(110,-241,l),
(149,-241,l),
(149,250,l),
(110,250,l)
);
},
{
closed = 1;
nodes = (
(-29,342,l),
(110,350,l),
(110,187,ls),
(110,47,o),
(198,-20,o),
(343,-20,cs),
(445,-20,o),
(523,12,o),
(596,60,c),
(596,-12,l),
(771,29,l),
(769,37,l),
(631,46,l),
(632,421,l),
(452,350,l),
(454,342,l),
(592,350,l),
(592,85,l),
(526,41,o),
(444,10,o),
(354,10,cs),
(225,10,o),
(149,78,o),
(149,187,cs),
(149,421,l),
(-31,350,l)
);
}
);
width = 778;
},
{
layerId = m002;
shapes = (
{
closed = 1;
nodes = (
(96,-255,l),
(183,-255,l),
(183,250,l),
(96,250,l)
);
},
{
closed = 1;
nodes = (
(-43,342,l),
(96,350,l),
(96,201,ls),
(96,60,o),
(171,-20,o),
(316,-20,cs),
(407,-20,o),
(512,4,o),
(608,60,c),
(608,-12,l),
(831,43,l),
(829,51,l),
(691,60,l),
(692,435,l),
(464,350,l),
(466,342,l),
(604,350,l),
(604,97,l),
(522,52,o),
(446,36,o),
(381,36,cs),
(252,36,o),
(183,92,o),
(183,201,cs),
(183,435,l),
(-45,350,l)
);
}
);
width = 804;
},
{
layerId = m003;
shapes = (
{
closed = 1;
nodes = (
(89,-242,l),
(162,-242,l),
(162,204,l),
(89,204,l)
);
},
{
closed = 1;
nodes = (
(-20,337,l),
(89,345,l),
(89,138,ls),
(89,31,o),
(124,-20,o),
(199,-20,cs),
(247,-20,o),
(299,3,o),
(342,41,c),
(342,-20,l),
(514,56,l),
(512,64,l),
(415,53,l),
(415,422,l),
(231,345,l),
(233,337,l),
(342,345,l),
(342,77,l),
(310,50,o),
(274,32,o),
(237,32,cs),
(184,32,o),
(162,68,o),
(162,149,cs),
(162,422,l),
(-22,345,l)
);
}
);
width = 497;
},
{
layerId = "2C26E880-80A5-4D19-8A94-7D905A372841";
shapes = (
{
closed = 1;
nodes = (
(99,-232,l),
(133,-232,l),
(133,204,l),
(99,204,l)
);
},
{
closed = 1;
nodes = (
(-10,337,l),
(99,345,l),
(99,128,ls),
(99,34,o),
(138,-20,o),
(203,-20,cs),
(245,-20,o),
(287,-3,o),
(331,45,c),
(331,-20,l),
(475,47,l),
(473,55,l),
(365,47,l),
(365,412,l),
(220,345,l),
(222,337,l),
(331,345,l),
(331,73,l),
(287,22,o),
(252,8,o),
(216,8,cs),
(164,8,o),
(133,54,o),
(133,136,cs),
(133,412,l),
(-12,345,l)
);
}
);
width = 469;
}
);
metricLeft = l;
metricRight = u;
unicode = 956;
}
{
glyphname = emdash;
layers = (
{
layerId = "0CCC0E2D-406A-4672-8E6C-854B1DF78A27";
shapes = (
{
closed = 1;
nodes = (
(50,222,l),
(969,222,l),
(969,257,l),
(50,257,l)
);
}
);
width = 1019;
},
{
layerId = m002;
shapes = (
{
closed = 1;
nodes = (
(34,210,l),
(953,210,l),
(953,268,l),
(34,268,l)
);
}
);
width = 987;
},
{
layerId = m003;
shapes = (
{
closed = 1;
nodes = (
(38,216,l),
(561,216,l),
(561,265,l),
(38,265,l)
);
}
);
width = 599;
},
{
layerId = "2C26E880-80A5-4D19-8A94-7D905A372841";
shapes = (
{
closed = 1;
nodes = (
(49,226,l),
(572,226,l),
(572,256,l),
(49,256,l)
);
}
);
width = 622;
}
);
unicode = 8212;
}
{
glyphname = fl;
kernLeft = f;
kernRight = l;
layers = (
{
layerId = "0CCC0E2D-406A-4672-8E6C-854B1DF78A27";
shapes = (
{
ref = f_l;
}
);
width = 872;
},
{
associatedMasterId = "0CCC0E2D-406A-4672-8E6C-854B1DF78A27";
layerId = "5552C838-22E9-4436-96AE-B9B998EA03DC";
name = "Apr 20 19, 13:01";
shapes = (
{
closed = 1;
nodes = (
(42,0,l),
(427,1,l),
(429,9,l),
(259,49,l),
(259,365,l),
(546,365,l),
(546,400,l),
(259,400,l),
(259,444,l),
(254,619,o),
(270,658,o),
(416,658,cs),
(491,658,o),
(567,637,o),
(652,582,c),
(652,50,l),
(522,9,l),
(524,0,l),
(870,0,l),
(872,7,l),
(722,50,l),
(722,608,l),
(731,658,l),
(670.438,638.947,l),
(590.024,675.99,o),
(478.028,700,o),
(416,700,cs),
(246,700,o),
(189,612,o),
(189,444,cs),
(189.112,400,l),
(79,375,l),
(81,365,l),
(189.201,365,l),
(190,50,l),
(40,7,l)
);
}
);
width = 912;
},
{
associatedMasterId = "0CCC0E2D-406A-4672-8E6C-854B1DF78A27";
layerId = "F32F64D2-B16E-430F-A685-527FD4C50ED1";
name = "Apr 20 19, 13:01";
shapes = (
{
closed = 1;
nodes = (
(42,0,l),
(427,1,l),
(429,9,l),
(259,49,l),
(259,365,l),
(546,365,l),
(546,400,l),
(259,400,l),
(259,444,l),
(254,619,o),
(270,658,o),
(416,658,cs),
(491,658,o),
(567,637,o),
(652,582,c),
(652,50,l),
(522,9,l),
(524,0,l),
(870,0,l),
(872,7,l),
(722,50,l),
(722,608,l),
(731,658,l),
(670.438,638.947,l),
(590.024,675.99,o),
(478.028,700,o),
(416,700,cs),
(246,700,o),
(189,612,o),
(189,444,cs),
(189.112,400,l),
(79,375,l),
(81,365,l),
(189.201,365,l),
(190,50,l),
(40,7,l)
);
}
);
width = 912;
},
{
associatedMasterId = "0CCC0E2D-406A-4672-8E6C-854B1DF78A27";
layerId = "88CB1E80-3D60-4B07-9DA8-DC86DC3B33D8";
name = "Apr 20 19, 12:59";
shapes = (
{
closed = 1;
nodes = (
(7,0,l),
(263,0,l),
(266,4,l),
(146,30,l),
(146,370,l),
(260,370,l),
(260,400,l),
(146,400,l),
(146,444,ls),
(146,624,o),
(155,670,o),
(223,670,cs),
(259.743,670,o),
(324.098,651.263,o),
(378.851,609.873,c),
(379,30,l),
(289,5,l),
(293,0,l),
(496,0,l),
(499,5,l),
(429,30,l),
(429,630,l),
(442,680,l),
(375.738,657.602,l),
(297.321,695.185,o),
(255.345,700,o),
(223,700,cs),
(127,700,o),
(96,612,o),
(96,444,cs),
(96,400,l),
(37,375,l),
(37,370,l),
(96,370,l),
(96,30,l),
(5,4,l)
);
}
);
width = 509;
},
{
layerId = m002;
shapes = (
{
ref = f_l;
}
);
width = 926;
},
{
associatedMasterId = m002;
layerId = "AA593EDB-4869-43AA-A428-B0C200808F85";
name = "Apr 20 19, 13:01";
shapes = (
{
closed = 1;
nodes = (
(42,0,l),
(427,1,l),
(429,9,l),
(259,49,l),
(259,365,l),
(546,365,l),
(546,400,l),
(259,400,l),
(259,444,l),
(254,619,o),
(270,658,o),
(416,658,cs),
(491,658,o),
(567,637,o),
(652,582,c),
(652,50,l),
(522,9,l),
(524,0,l),
(870,0,l),
(872,7,l),
(722,50,l),
(722,608,l),
(731,658,l),
(670.438,638.947,l),
(590.024,675.99,o),
(478.028,700,o),
(416,700,cs),
(246,700,o),
(189,612,o),
(189,444,cs),
(189.112,400,l),
(79,375,l),
(81,365,l),
(189.201,365,l),
(190,50,l),
(40,7,l)
);
}
);
width = 912;
},
{
associatedMasterId = m002;
layerId = "66946DA3-4B82-4408-A23F-A152C8CB64E3";
name = "Apr 20 19, 13:01";
shapes = (
{
closed = 1;
nodes = (
(42,0,l),
(427,1,l),
(429,9,l),
(259,49,l),
(259,365,l),
(546,365,l),
(546,400,l),
(259,400,l),
(259,444,l),
(254,619,o),
(270,658,o),
(416,658,cs),
(491,658,o),
(567,637,o),
(652,582,c),
(652,50,l),
(522,9,l),
(524,0,l),
(870,0,l),
(872,7,l),
(722,50,l),
(722,608,l),
(731,658,l),
(670.438,638.947,l),
(590.024,675.99,o),
(478.028,700,o),
(416,700,cs),
(246,700,o),
(189,612,o),
(189,444,cs),
(189.112,400,l),
(79,375,l),
(81,365,l),
(189.201,365,l),
(190,50,l),
(40,7,l)
);
}
);
width = 912;
},
{
associatedMasterId = m002;
layerId = "1D911362-1835-418E-946E-AFC579BD267B";
name = "Apr 20 19, 12:59";
shapes = (
{
closed = 1;
nodes = (
(7,0,l),
(263,0,l),
(266,4,l),
(146,30,l),
(146,370,l),
(260,370,l),
(260,400,l),
(146,400,l),
(146,444,ls),
(146,624,o),
(155,670,o),
(223,670,cs),
(259.743,670,o),
(324.098,651.263,o),
(378.851,609.873,c),
(379,30,l),
(289,5,l),
(293,0,l),
(496,0,l),
(499,5,l),
(429,30,l),
(429,630,l),
(442,680,l),
(375.738,657.602,l),
(297.321,695.185,o),
(255.345,700,o),
(223,700,cs),
(127,700,o),
(96,612,o),
(96,444,cs),
(96,400,l),
(37,375,l),
(37,370,l),
(96,370,l),
(96,30,l),
(5,4,l)
);
}
);
width = 509;
},
{
layerId = m003;
shapes = (
{
ref = f_l;
}
);
width = 578;
},
{
associatedMasterId = m003;
layerId = "7A854E27-AE3C-44B2-9C5D-D5D7F5BD3C13";
name = "Apr 20 19, 13:01";
shapes = (
{
closed = 1;
nodes = (
(42,0,l),
(427,1,l),
(429,9,l),
(259,49,l),
(259,365,l),
(546,365,l),
(546,400,l),
(259,400,l),
(259,444,l),
(254,619,o),
(270,658,o),
(416,658,cs),
(491,658,o),
(567,637,o),
(652,582,c),
(652,50,l),
(522,9,l),
(524,0,l),
(870,0,l),
(872,7,l),
(722,50,l),
(722,608,l),
(731,658,l),
(670.438,638.947,l),
(590.024,675.99,o),
(478.028,700,o),
(416,700,cs),
(246,700,o),
(189,612,o),
(189,444,cs),
(189.112,400,l),
(79,375,l),
(81,365,l),
(189.201,365,l),
(190,50,l),
(40,7,l)
);
}
);
width = 912;
},
{
associatedMasterId = m003;
layerId = "7B3FCEE8-6C6A-44E1-8E28-3ABF1704E119";
name = "Apr 20 19, 13:01";
shapes = (
{
closed = 1;
nodes = (
(42,0,l),
(427,1,l),
(429,9,l),
(259,49,l),
(259,365,l),
(546,365,l),
(546,400,l),
(259,400,l),
(259,444,l),
(254,619,o),
(270,658,o),
(416,658,cs),
(491,658,o),
(567,637,o),
(652,582,c),
(652,50,l),
(522,9,l),
(524,0,l),
(870,0,l),
(872,7,l),
(722,50,l),
(722,608,l),
(731,658,l),
(670.438,638.947,l),
(590.024,675.99,o),
(478.028,700,o),
(416,700,cs),
(246,700,o),
(189,612,o),
(189,444,cs),
(189.112,400,l),
(79,375,l),
(81,365,l),
(189.201,365,l),
(190,50,l),
(40,7,l)
);
}
);
width = 912;
},
{
associatedMasterId = m003;
layerId = "6E96B803-584B-4F46-88FF-9B29E7B8A82F";
name = "Apr 20 19, 12:59";
shapes = (
{
closed = 1;
nodes = (
(7,0,l),
(263,0,l),
(266,4,l),
(146,30,l),
(146,370,l),
(260,370,l),
(260,400,l),
(146,400,l),
(146,444,ls),
(146,624,o),
(155,670,o),
(223,670,cs),
(259.743,670,o),
(324.098,651.263,o),
(378.851,609.873,c),
(379,30,l),
(289,5,l),
(293,0,l),
(496,0,l),
(499,5,l),
(429,30,l),
(429,630,l),
(442,680,l),
(375.738,657.602,l),
(297.321,695.185,o),
(255.345,700,o),
(223,700,cs),
(127,700,o),
(96,612,o),
(96,444,cs),
(96,400,l),
(37,375,l),
(37,370,l),
(96,370,l),
(96,30,l),
(5,4,l)
);
}
);
width = 509;
},
{
layerId = "2C26E880-80A5-4D19-8A94-7D905A372841";
shapes = (
{
ref = f_l;
}
);
width = 567;
}
);
metricLeft = f;
metricRight = l;
unicode = 64258;
}
{
glyphname = dotaccentcomb.case;
layers = (
{
anchors = (
{
name = _top;
pos = (105,591);
}
);
layerId = "0CCC0E2D-406A-4672-8E6C-854B1DF78A27";
shapes = (
{
closed = 1;
nodes = (
(69,690,l),
(140,690,l),
(140,782,l),
(69,782,l)
);
}
);
width = 210;
},
{
anchors = (
{
name = _top;
pos = (83,605);
}
);
layerId = m002;
shapes = (
{
closed = 1;
nodes = (
(40,697,l),
(125,697,l),
(125,794,l),
(40,794,l)
);
}
);
width = 165;
},
{
anchors = (
{
name = _top;
pos = (85,600);
}
);
layerId = m003;
shapes = (
{
closed = 1;
nodes = (
(48,680,l),
(123,680,l),
(123,773,l),
(48,773,l)
);
}
);
width = 171;
},
{
anchors = (
{
name = _top;
pos = (86,600);
}
);
layerId = "2C26E880-80A5-4D19-8A94-7D905A372841";
shapes = (
{
closed = 1;
nodes = (
(60,680,l),
(110,680,l),
(110,760,l),
(60,760,l)
);
}
);
width = 170;
}
);
}
{
glyphname = f_f;
layers = (
{
layerId = "2C26E880-80A5-4D19-8A94-7D905A372841";
shapes = (
{
closed = 1;
nodes = (
(404,391,l),
(136,392,l),
(136,504,ls),
(136,607,o),
(165,645,o),
(240,646,cs),
(291,647,o),
(343,628,o),
(410,587,c),
(406,560,o),
(404,525,o),
(404,480,cs)
);
},
{
closed = 1;
nodes = (
(545,677,o),
(570,670,o),
(591,662,c),
(607,569,l),
(615,567,l),
(649,675,l),
(623,688,o),
(558,702,o),
(519,702,cs),
(466,702,o),
(433,681,o),
(417,621,c),
(348,656,o),
(296,672,o),
(246,672,cs),
(146,672,o),
(101,614,o),
(101,480,cs),
(101,407,l),
(-9,375,l),
(-7,367,l),
(101,367,l),
(101,47,l),
(-10,8,l),
(-8,0,l),
(261,0,l),
(263,8,l),
(136,47,l),
(136,367,l),
(404,366,l),
(404,47,l),
(294,8,l),
(296,0,l),
(578,0,l),
(580,8,l),
(438,47,l),
(438,367,l),
(536,366,l),
(548,274,l),
(556,272,l),
(587,391,l),
(438,392,l),
(438,504,ls),
(438,630,o),
(456,674,o),
(508,676,cs)
);
}
);
width = 638;
},
{
layerId = m003;
shapes = (
{
closed = 1;
nodes = (
(407,401,l),
(171,402,l),
(171,504,ls),
(171,603,o),
(201,649,o),
(260,649,cs),
(306,649,o),
(373,625,o),
(412,572,c),
(409,546,o),
(407,494,o),
(407,448,cs)
);
},
{
closed = 1;
nodes = (
(562,679,o),
(599,673,o),
(618,662,c),
(633,559,l),
(641,557,l),
(675,685,l),
(639,698,o),
(586,712,o),
(537,712,cs),
(487,712,o),
(453,685,o),
(433,635,c),
(361,665,o),
(328,682,o),
(258,682,cs),
(152,682,o),
(98,604,o),
(98,448,cs),
(98,405,l),
(-12,375,l),
(-10,365,l),
(98,365,l),
(99,51,l),
(-23,8,l),
(-21,0,l),
(274,0,l),
(276,8,l),
(171,50,l),
(171,368,l),
(407,367,l),
(409,51,l),
(299,8,l),
(301,0,l),
(630,0,l),
(632,8,l),
(480,50,l),
(480,368,l),
(572,367,l),
(590,275,l),
(598,273,l),
(639,401,l),
(480,402,l),
(480,504,ls),
(480,665,o),
(487,676,o),
(539,678,cs)
);
}
);
width = 653;
},
{
layerId = m002;
shapes = (
{
closed = 1;
nodes = (
(588,415,l),
(212,415,l),
(212,479,ls),
(212,577,o),
(264,648,o),
(378,648,cs),
(470,648,o),
(544,619,o),
(599,566,c),
(590,534,o),
(588,494,o),
(588,464,cs)
);
},
{
closed = 1;
nodes = (
(875,678,o),
(937,664,o),
(981,645,c),
(997,494,l),
(1005,492,l),
(1063,667,l),
(988,700,o),
(876,725,o),
(804,725,cs),
(720,725,o),
(658,691,o),
(622,626,c),
(559,675,o),
(502,695,o),
(421,695,cs),
(245,695,o),
(125,601,o),
(125,464,cs),
(125,415,l),
(15,378,l),
(17,368,l),
(125,368,l),
(126,50,l),
(6,8,l),
(8,0,l),
(430,0,l),
(432,8,l),
(212,49,l),
(212,375,l),
(588,375,l),
(589,50,l),
(469,8,l),
(471,0,l),
(892,0,l),
(894,8,l),
(674,49,l),
(674,375,l),
(909,375,l),
(926,273,l),
(934,271,l),
(988,415,l),
(674,415,l),
(674,464,ls),
(674,639,o),
(698,678,o),
(804,678,cs)
);
}
);
width = 1024;
},
{
layerId = "0CCC0E2D-406A-4672-8E6C-854B1DF78A27";
shapes = (
{
closed = 1;
nodes = (
(614,401,l),
(177,401,l),
(177,465,ls),
(177,593,o),
(286,654,o),
(404,654,cs),
(466,654,o),
(561,637,o),
(629,595,c),
(619,562,o),
(614,519,o),
(614,464,cs)
);
},
{
closed = 1;
nodes = (
(849,684,o),
(900,674,o),
(958,657,c),
(974,532,l),
(982,530,l),
(1027,666,l),
(934,698,o),
(860,711,o),
(803,711,cs),
(720,711,o),
(669,687,o),
(641,629,c),
(544,671,o),
(478,681,o),
(408,681,cs),
(265,681,o),
(138,604,o),
(138,464,cs),
(138,415,l),
(28,384,l),
(30,374,l),
(138,374,l),
(139,50,l),
(19,8,l),
(21,0,l),
(395,0,l),
(397,8,l),
(177,49,l),
(177,375,l),
(614,375,l),
(615,50,l),
(495,8,l),
(497,0,l),
(871,0,l),
(873,8,l),
(653,49,l),
(653,375,l),
(888,375,l),
(905,273,l),
(913,271,l),
(953,401,l),
(653,401,l),
(653,464,ls),
(653,636,o),
(685,684,o),
(794,684,cs)
);
}
);
width = 1014;
}
);
metricLeft = f;
metricRight = f;
}
{
glyphname = f_h.liga;
kernLeft = f;
kernRight = n;
layers = (
{
layerId = "0CCC0E2D-406A-4672-8E6C-854B1DF78A27";
shapes = (
{
closed = 1;
nodes = (
(138,415,l),
(28,384,l),
(30,374,l),
(138,374,l),
(139,50,l),
(19,8,l),
(21,0,l),
(395,0,l),
(397,8,l),
(177,49,l),
(177,375,l),
(435,375,l),
(452,273,l),
(460,271,l),
(501,401,l),
(177,401,l),
(177,464,ls),
(177,633,o),
(287,684,o),
(410,684,cs),
(481,684,o),
(607,664,o),
(673,631,c),
(673,50,l),
(523,8,l),
(525,0,l),
(861,0,l),
(863,8,l),
(713,50,l),
(713,720,l),
(637,683,l),
(570,700,o),
(491,711,o),
(413,711,cs),
(265,711,o),
(138,643,o),
(138,464,cs)
);
},
{
closed = 1;
nodes = (
(701,296,l),
(802,363,o),
(891,391,o),
(982,391,cs),
(1114,391,o),
(1172,330,o),
(1173,217,cs),
(1174,50,l),
(1024,8,l),
(1026,0,l),
(1344,1,l),
(1346,9,l),
(1212,49,l),
(1212,223,ls),
(1212,351,o),
(1142,421,o),
(997,421,cs),
(898,421,o),
(800,388,o),
(701,323,c)
);
}
);
width = 1365;
},
{
layerId = m002;
shapes = (
{
closed = 1;
nodes = (
(125,415,l),
(15,378,l),
(17,368,l),
(125,368,l),
(126,50,l),
(6,8,l),
(8,0,l),
(430,0,l),
(432,8,l),
(212,49,l),
(212,375,l),
(501,375,l),
(518,273,l),
(526,271,l),
(579,415,l),
(212,415,l),
(212,464,ls),
(212,608,o),
(280,678,o),
(451,678,cs),
(587,678,o),
(657,643,o),
(694,598,c),
(694,50,l),
(544,8,l),
(546,0,l),
(929,0,l),
(931,7,l),
(781,50,l),
(781,720,l),
(749,688,l),
(626,717,o),
(580,725,o),
(481,725,cs),
(234,725,o),
(125,626,o),
(125,464,cs)
);
},
{
closed = 1;
nodes = (
(749,284,l),
(835,342,o),
(936,379,o),
(1011,379,cs),
(1128,379,o),
(1200,327,o),
(1201,213,cs),
(1202,50,l),
(1052,8,l),
(1054,0,l),
(1446,1,l),
(1448,9,l),
(1287,49,l),
(1287,210,ls),
(1287,355,o),
(1203,435,o),
(1058,435,cs),
(962,435,o),
(857,397,o),
(749,323,c)
);
}
);
width = 1454;
},
{
layerId = m003;
shapes = (
{
closed = 1;
nodes = (
(98,405,l),
(-12,375,l),
(-10,365,l),
(98,365,l),
(99,51,l),
(-23,8,l),
(-21,0,l),
(284,0,l),
(286,8,l),
(171,50,l),
(171,368,l),
(263,367,l),
(281,275,l),
(289,273,l),
(330,401,l),
(171,402,l),
(171,504,ls),
(171,634,o),
(186,673,o),
(237,675,cs),
(289,677,o),
(385,647,o),
(396,624,c),
(396,47,l),
(296,8,l),
(298,0,l),
(552,0,l),
(554,8,l),
(468,47,l),
(468,712,l),
(400,681,l),
(361,695,o),
(286,712,o),
(236,712,cs),
(135,712,o),
(98,642,o),
(98,448,cs)
);
},
{
closed = 1;
nodes = (
(446,276,l),
(495,342,o),
(536,371,o),
(575,371,cs),
(623,371,o),
(652,329,o),
(652,253,cs),
(652,45,l),
(573,8,l),
(575,0,l),
(823,1,l),
(825,9,l),
(724,44,l),
(724,264,ls),
(724,365,o),
(684,422,o),
(613,422,cs),
(558,422,o),
(505,388,o),
(446,312,c)
);
}
);
width = 833;
},
{
layerId = "2C26E880-80A5-4D19-8A94-7D905A372841";
shapes = (
{
closed = 1;
nodes = (
(101,407,l),
(-9,375,l),
(-7,367,l),
(101,367,l),
(101,47,l),
(-10,8,l),
(-8,0,l),
(271,0,l),
(273,8,l),
(136,47,l),
(136,367,l),
(233,366,l),
(246,274,l),
(254,272,l),
(284,391,l),
(136,392,l),
(136,504,ls),
(136,638,o),
(156,675,o),
(229,676,cs),
(280,677,o),
(355,659,o),
(421,629,c),
(421,47,l),
(321,8,l),
(323,0,l),
(561,0,l),
(563,8,l),
(455,47,l),
(455,702,l),
(400,668,l),
(343,689,o),
(280,702,o),
(235,702,cs),
(135,702,o),
(101,645,o),
(101,480,cs)
);
},
{
closed = 1;
nodes = (
(446,286,l),
(497,353,o),
(539,383,o),
(589,383,cs),
(644,383,o),
(667,346,o),
(667,257,cs),
(667,45,l),
(587,8,l),
(589,0,l),
(800,1,l),
(802,9,l),
(701,44,l),
(701,264,ls),
(701,366,o),
(670,412,o),
(602,412,cs),
(546,412,o),
(495,382,o),
(446,318,c)
);
}
);
width = 821;
}
);
metricLeft = f;
metricRight = h;
}
{
glyphname = hungarumlautcomb.case;
layers = (
{
anchors = (
{
name = _top;
pos = (175,593);
}
);
layerId = "0CCC0E2D-406A-4672-8E6C-854B1DF78A27";
shapes = (
{
closed = 1;
nodes = (
(419,795,l),
(206,687,l),
(211,670,l),
(446,733,l)
);
},
{
closed = 1;
nodes = (
(246,819,l),
(56,680,l),
(63,666,l),
(284,762,l)
);
}
);
width = 492;
},
{
anchors = (
{
name = _top;
pos = (237,604);
}
);
layerId = m002;
shapes = (
{
closed = 1;
nodes = (
(543,820,l),
(253,692,l),
(259,671,l),
(580,745,l)
);
},
{
closed = 1;
nodes = (
(307,847,l),
(47,683,l),
(57,666,l),
(358,779,l)
);
}
);
width = 633;
},
{
anchors = (
{
name = _top;
pos = (185,600);
}
);
layerId = m003;
shapes = (
{
closed = 1;
nodes = (
(367,774,l),
(205,701,l),
(215,670,l),
(392,704,l)
);
},
{
closed = 1;
nodes = (
(186,813,l),
(48,697,l),
(69,670,l),
(228,754,l)
);
}
);
width = 440;
},
{
anchors = (
{
name = _top;
pos = (154,600);
}
);
layerId = "2C26E880-80A5-4D19-8A94-7D905A372841";
shapes = (
{
closed = 1;
nodes = (
(349,761,l),
(199,688,l),
(206,670,l),
(370,704,l)
);
},
{
closed = 1;
nodes = (
(185,788,l),
(60,684,l),
(72,670,l),
(219,741,l)
);
}
);
width = 430;
}
);
}
